<svg width="1280" height="832" viewBox="0 0 1280 832" fill="none" xmlns="http://www.w3.org/2000/svg">
<path d="M300.444 306.484C324.806 352.942 332.302 388.186 378.215 423.43C423.191 457.873 507.521 493.117 535.631 541.177C563.741 589.237 536.568 650.914 478.474 666.133C420.38 681.352 332.302 650.113 267.649 646.909C202.996 643.705 162.705 667.735 104.611 681.352C45.58 695.77 -30.317 699.775 -95.907 674.143C-160.56 647.71 -213.969 592.441 -222.402 531.565C-230.835 471.49 -194.292 406.609 -141.82 364.156C-89.348 322.504 -20.01 304.081 39.021 271.24C98.052 239.2 146.776 191.941 191.752 197.548C235.791 203.155 276.082 260.827 300.444 306.484Z" fill="url(#paint0_linear_7_159)"/>
<path d="M877.88 743.53C926.2 804.28 942.055 890.14 931.485 963.85C920.16 1038.37 881.655 1100.74 833.335 1150.15C785.77 1199.56 727.635 1236.82 659.685 1248.16C590.98 1258.69 513.215 1243.3 465.65 1193.89C418.84 1143.67 402.985 1060.24 415.82 989.77C428.655 920.11 470.935 863.41 517.745 803.47C564.555 742.72 617.405 677.11 683.09 662.53C749.53 647.14 829.56 682.78 877.88 743.53Z" fill="url(#paint1_linear_7_159)"/>
<path d="M1275.08 3.87991C1319.07 51.4399 1333.73 121.04 1358.17 188.32C1382.61 255.6 1416.83 321.72 1418.05 395.96C1420.49 470.2 1389.94 552.56 1328.84 580.4C1267.74 608.24 1174.87 581.56 1075.89 588.52C978.13 596.64 874.26 638.4 799.718 615.2C723.954 590.84 678.74 501.52 695.848 422.64C714.178 343.76 794.83 276.48 816.826 184.84C838.822 93.1999 802.162 -23.9601 836.378 -75.0001C870.594 -126.04 976.908 -110.96 1066.11 -91.2401C1156.54 -70.3601 1231.08 -44.8401 1275.08 3.87991Z" fill="url(#paint2_linear_7_159)"/>
<defs>
<linearGradient id="paint0_linear_7_159" x1="-223.613" y1="692.79" x2="227.514" y2="-8.33946" gradientUnits="userSpaceOnUse">
<stop stop-color="#EAD94C"/>
<stop offset="1" stop-color="#EAD94C"/>
</linearGradient>
<linearGradient id="paint1_linear_7_159" x1="411.539" y1="1251.3" x2="999.335" y2="732.253" gradientUnits="userSpaceOnUse">
<stop stop-color="#DD7373"/>
<stop offset="1" stop-color="#DD7373"/>
</linearGradient>
<linearGradient id="paint2_linear_7_159" x1="692.239" y1="622.136" x2="1424.01" y2="-103.788" gradientUnits="userSpaceOnUse">
<stop stop-color="#51A3A3"/>
<stop offset="1" stop-color="#51A3A3"/>
</linearGradient>
</defs>
</svg>
