<svg width="369" height="188" viewBox="0 0 369 188" fill="none" xmlns="http://www.w3.org/2000/svg">
<rect x="3.23684" y="3.23684" width="362.526" height="180.616" rx="20.7158" stroke="#3B3561" stroke-width="6.47368" stroke-linejoin="round"/>
<path d="M0 111.347H369V168.963H0V111.347Z" fill="#3B3561"/>
<rect x="3.23684" y="132.71" width="362.526" height="51.1421" rx="20.7158" fill="#3B3561" stroke="#3B3561" stroke-width="6.47368" stroke-linejoin="round"/>
<path d="M51.3381 54.1184H40.3948V48.8458H68.2936V54.1184H57.3503V78.4895H51.3381V54.1184ZM72.9592 71.4342C72.9592 70.3595 73.1931 69.3796 73.6609 68.4945C74.1287 67.6094 74.8305 66.8508 75.7661 66.2186C76.7018 65.5737 77.865 65.0806 79.2558 64.7392C80.6593 64.3852 82.2904 64.2082 84.149 64.2082C85.5272 64.2082 86.975 64.3094 88.4922 64.5117C90.0221 64.714 91.5963 65.0237 93.2147 65.441C93.1515 64.7329 92.9366 64.0818 92.5699 63.4875C92.2032 62.8806 91.6911 62.3622 91.0337 61.9323C90.3888 61.4898 89.6049 61.1484 88.6819 60.9081C87.7715 60.6679 86.7347 60.5478 85.5715 60.5478C84.9393 60.5478 84.2439 60.5857 83.4852 60.6616C82.7266 60.7374 81.9427 60.8512 81.1335 61.003C80.3243 61.1547 79.5214 61.3444 78.7248 61.5719C77.9409 61.7995 77.2075 62.0714 76.5248 62.3875L74.8178 57.7788C75.665 57.4753 76.569 57.1971 77.5299 56.9443C78.5035 56.6914 79.4961 56.4764 80.5076 56.2994C81.5191 56.1098 82.5306 55.9644 83.5421 55.8632C84.5536 55.7621 85.5335 55.7115 86.4818 55.7115C90.667 55.7115 93.7774 56.7799 95.8131 58.9167C97.8487 61.0535 98.8666 64.3283 98.8666 68.741V78.4895H93.2527V76.3843C92.671 76.7257 92.0325 77.0481 91.3371 77.3515C90.6543 77.655 89.9083 77.9205 89.0991 78.1481C88.2899 78.3757 87.4175 78.5527 86.4818 78.6792C85.5588 78.8182 84.5789 78.8878 83.5421 78.8878C81.7973 78.8878 80.261 78.6981 78.9334 78.3188C77.6185 77.9395 76.5184 77.4148 75.6334 76.7446C74.7483 76.0745 74.0782 75.2906 73.623 74.3929C73.1804 73.4825 72.9592 72.4963 72.9592 71.4342ZM78.8765 71.2445C78.8765 71.6112 78.9714 71.9652 79.161 72.3066C79.3507 72.6354 79.6541 72.9325 80.0714 73.198C80.4886 73.4509 81.0197 73.6595 81.6645 73.8239C82.322 73.9756 83.1122 74.0515 84.0352 74.0515C85.0215 74.0515 85.9761 73.963 86.8991 73.786C87.8221 73.609 88.6819 73.375 89.4784 73.0842C90.275 72.7934 90.9957 72.4584 91.6406 72.079C92.2854 71.6997 92.8228 71.3078 93.2527 70.9032V69.9169C92.3929 69.6767 91.5394 69.4744 90.6923 69.31C89.8578 69.1456 89.0549 69.0192 88.2836 68.9307C87.525 68.8296 86.8043 68.76 86.1215 68.7221C85.4514 68.6841 84.8634 68.6652 84.3577 68.6652C83.3082 68.6652 82.4358 68.7347 81.7404 68.8738C81.045 69.0129 80.4823 69.2025 80.0524 69.4428C79.6225 69.6704 79.3191 69.9422 79.142 70.2583C78.965 70.5744 78.8765 70.9032 78.8765 71.2445ZM107.193 71.6239C108.71 72.5342 110.379 73.2043 112.2 73.6342C114.02 74.0641 115.885 74.2791 117.795 74.2791C119.084 74.2791 120.159 74.1906 121.019 74.0136C121.878 73.8365 122.568 73.609 123.086 73.3308C123.604 73.0526 123.971 72.7365 124.186 72.3825C124.401 72.0285 124.508 71.6681 124.508 71.3014C124.508 70.7704 124.275 70.3152 123.807 69.9359C123.352 69.5566 122.593 69.3669 121.531 69.3669C121.038 69.3669 120.507 69.3985 119.938 69.4617C119.369 69.525 118.768 69.5945 118.136 69.6704C117.516 69.7336 116.865 69.7968 116.182 69.86C115.512 69.9232 114.83 69.9549 114.134 69.9549C112.617 69.9549 111.321 69.7905 110.246 69.4617C109.184 69.133 108.318 68.6841 107.648 68.1152C106.978 67.5462 106.491 66.8761 106.187 66.1048C105.884 65.3209 105.732 64.48 105.732 63.5823C105.732 62.4444 105.998 61.3949 106.529 60.434C107.06 59.4731 107.818 58.6449 108.805 57.9495C109.791 57.2414 110.979 56.6914 112.37 56.2994C113.774 55.9075 115.335 55.7115 117.055 55.7115C117.953 55.7115 118.888 55.7684 119.862 55.8822C120.848 55.9833 121.815 56.1224 122.764 56.2994C123.712 56.4764 124.622 56.6851 125.495 56.9253C126.367 57.1529 127.138 57.3995 127.808 57.665L126.045 62.0271C124.616 61.4961 123.187 61.0788 121.758 60.7754C120.342 60.4593 118.882 60.3012 117.377 60.3012C116.328 60.3012 115.436 60.3834 114.703 60.5478C113.982 60.6995 113.394 60.9081 112.939 61.1737C112.484 61.4265 112.149 61.7237 111.934 62.0651C111.732 62.3938 111.631 62.7415 111.631 63.1082C111.631 63.3737 111.681 63.6139 111.782 63.8289C111.896 64.0438 112.073 64.2335 112.313 64.3979C112.566 64.5496 112.889 64.6697 113.281 64.7582C113.685 64.8341 114.178 64.872 114.76 64.872C115.291 64.872 115.854 64.8404 116.448 64.7772C117.042 64.714 117.662 64.6507 118.307 64.5875C118.951 64.5117 119.615 64.4421 120.298 64.3789C120.993 64.3157 121.701 64.2841 122.422 64.2841C123.762 64.2841 124.932 64.4421 125.931 64.7582C126.942 65.0743 127.777 65.5168 128.434 66.0858C129.092 66.6548 129.585 67.3249 129.914 68.0962C130.242 68.8675 130.407 69.7083 130.407 70.6187C130.407 71.7945 130.135 72.8882 129.591 73.8998C129.048 74.9113 128.238 75.79 127.164 76.536C126.089 77.2694 124.749 77.8447 123.143 78.2619C121.55 78.6792 119.704 78.8878 117.605 78.8878C116.315 78.8878 115.07 78.8056 113.869 78.6412C112.667 78.4895 111.523 78.2809 110.436 78.0154C109.348 77.7372 108.324 77.4148 107.363 77.0481C106.415 76.6814 105.549 76.2895 104.765 75.8722L107.193 71.6239ZM135.49 47.0251H141.104V65.6117L151.573 56.1098H160.164L148.462 66.5789L160.904 78.4895H152.483L144.157 70.429L141.104 73.1601V78.4895H135.49V47.0251ZM166.689 69.6704C167.763 70.2773 168.851 70.8273 169.951 71.3204C171.063 71.8009 172.214 72.2118 173.402 72.5532C174.591 72.8819 175.836 73.1348 177.139 73.3118C178.454 73.4888 179.851 73.5773 181.33 73.5773C183.113 73.5773 184.63 73.4635 185.882 73.236C187.134 72.9957 188.152 72.6733 188.935 72.2687C189.732 71.8514 190.307 71.3583 190.661 70.7894C191.028 70.2204 191.211 69.6008 191.211 68.9307C191.211 67.856 190.763 67.0088 189.865 66.3893C188.967 65.7571 187.583 65.441 185.711 65.441C184.889 65.441 184.023 65.4979 183.113 65.6117C182.203 65.7128 181.28 65.8266 180.344 65.9531C179.421 66.0795 178.504 66.1996 177.594 66.3134C176.696 66.4146 175.849 66.4651 175.052 66.4651C173.725 66.4651 172.448 66.2944 171.221 65.9531C170.008 65.6117 168.926 65.0996 167.978 64.4168C167.043 63.7341 166.297 62.8806 165.74 61.8564C165.184 60.8323 164.906 59.6374 164.906 58.2719C164.906 57.4627 165.013 56.6598 165.228 55.8632C165.456 55.0667 165.81 54.308 166.29 53.5873C166.783 52.854 167.416 52.1775 168.187 51.558C168.958 50.9258 169.887 50.3821 170.975 49.9269C172.075 49.4717 173.339 49.1177 174.768 48.8648C176.209 48.5993 177.847 48.4665 179.68 48.4665C181.008 48.4665 182.342 48.5424 183.682 48.6941C185.022 48.8332 186.325 49.0355 187.589 49.301C188.866 49.5665 190.092 49.889 191.268 50.2683C192.444 50.635 193.538 51.0459 194.549 51.5011L191.913 56.3563C191.079 55.9897 190.181 55.6546 189.22 55.3511C188.259 55.035 187.254 54.7632 186.204 54.5356C185.155 54.308 184.068 54.131 182.942 54.0046C181.83 53.8655 180.692 53.7959 179.528 53.7959C177.872 53.7959 176.507 53.9161 175.432 54.1563C174.37 54.3965 173.523 54.7063 172.89 55.0856C172.258 55.4523 171.816 55.8695 171.563 56.3374C171.323 56.7925 171.202 57.2477 171.202 57.7029C171.202 58.588 171.601 59.315 172.397 59.884C173.194 60.4403 174.408 60.7185 176.039 60.7185C176.696 60.7185 177.448 60.6742 178.296 60.5857C179.155 60.4846 180.053 60.3771 180.989 60.2633C181.937 60.1495 182.898 60.0484 183.872 59.9598C184.858 59.8587 185.812 59.8081 186.735 59.8081C188.48 59.8081 190.023 60.0041 191.363 60.3961C192.716 60.788 193.848 61.3507 194.758 62.084C195.668 62.8047 196.357 63.6835 196.825 64.7203C197.293 65.7444 197.527 66.895 197.527 68.1721C197.527 69.879 197.129 71.4026 196.332 72.7428C195.548 74.0705 194.423 75.1958 192.956 76.1188C191.502 77.0291 189.745 77.7245 187.684 78.205C185.623 78.6728 183.328 78.9068 180.799 78.9068C179.13 78.9068 177.499 78.7993 175.906 78.5843C174.313 78.382 172.783 78.0912 171.316 77.7119C169.862 77.3199 168.471 76.8584 167.144 76.3274C165.829 75.7837 164.609 75.1894 163.483 74.5446L166.689 69.6704ZM202.098 67.3945C202.098 65.6117 202.433 64.0059 203.103 62.5771C203.773 61.1357 204.696 59.9093 205.872 58.8978C207.061 57.8736 208.464 57.0897 210.082 56.546C211.713 55.9897 213.477 55.7115 215.374 55.7115C217.005 55.7115 218.503 55.9011 219.869 56.2805C221.234 56.6471 222.417 57.1276 223.415 57.7219V56.1098H229.029V87.6311H223.415V76.3843C222.922 76.7257 222.36 77.0481 221.727 77.3515C221.095 77.655 220.419 77.9205 219.698 78.1481C218.977 78.3757 218.219 78.5527 217.422 78.6792C216.638 78.8182 215.842 78.8878 215.033 78.8878C213.136 78.8878 211.391 78.6096 209.798 78.0533C208.217 77.497 206.858 76.713 205.72 75.7015C204.582 74.69 203.691 73.4825 203.046 72.079C202.414 70.6629 202.098 69.1014 202.098 67.3945ZM207.996 67.3945C207.996 68.2922 208.173 69.1393 208.527 69.9359C208.894 70.7325 209.412 71.4342 210.082 72.0411C210.765 72.6354 211.581 73.1095 212.529 73.4635C213.49 73.8049 214.565 73.9756 215.753 73.9756C216.512 73.9756 217.252 73.9061 217.972 73.767C218.693 73.6153 219.376 73.4066 220.021 73.1411C220.678 72.8756 221.291 72.5532 221.86 72.1739C222.442 71.7945 222.96 71.371 223.415 70.9032V63.1461C222.265 62.2357 221.076 61.5909 219.85 61.2116C218.636 60.8196 217.391 60.6237 216.114 60.6237C214.824 60.6237 213.673 60.8007 212.662 61.1547C211.663 61.4961 210.816 61.9702 210.12 62.5771C209.438 63.184 208.913 63.8984 208.546 64.7203C208.18 65.5421 207.996 66.4335 207.996 67.3945ZM235.914 56.0908H241.509V67.0151C241.509 68.052 241.623 69.0002 241.85 69.86C242.078 70.7072 242.463 71.4342 243.007 72.0411C243.564 72.648 244.297 73.1222 245.207 73.4635C246.13 73.7923 247.275 73.9567 248.64 73.9567C249.285 73.9567 249.936 73.8871 250.594 73.748C251.264 73.609 251.902 73.4193 252.509 73.1791C253.116 72.9262 253.679 72.629 254.197 72.2877C254.728 71.9463 255.183 71.5733 255.563 71.1687V56.0908H261.176V78.4895H255.563V76.5739C254.184 77.3958 252.8 77.9837 251.409 78.3378C250.018 78.6918 248.697 78.8688 247.445 78.8688C245.397 78.8688 243.639 78.6223 242.173 78.1292C240.719 77.636 239.524 76.9217 238.588 75.986C237.665 75.0377 236.989 73.8808 236.559 72.5153C236.129 71.1371 235.914 69.5692 235.914 67.8117V56.0908ZM267.246 71.4342C267.246 70.3595 267.479 69.3796 267.947 68.4945C268.415 67.6094 269.117 66.8508 270.053 66.2186C270.988 65.5737 272.151 65.0806 273.542 64.7392C274.946 64.3852 276.577 64.2082 278.435 64.2082C279.814 64.2082 281.261 64.3094 282.779 64.5117C284.309 64.714 285.883 65.0237 287.501 65.441C287.438 64.7329 287.223 64.0818 286.856 63.4875C286.49 62.8806 285.978 62.3622 285.32 61.9323C284.675 61.4898 283.891 61.1484 282.968 60.9081C282.058 60.6679 281.021 60.5478 279.858 60.5478C279.226 60.5478 278.53 60.5857 277.772 60.6616C277.013 60.7374 276.229 60.8512 275.42 61.003C274.611 61.1547 273.808 61.3444 273.011 61.5719C272.227 61.7995 271.494 62.0714 270.811 62.3875L269.104 57.7788C269.951 57.4753 270.855 57.1971 271.816 56.9443C272.79 56.6914 273.782 56.4764 274.794 56.2994C275.806 56.1098 276.817 55.9644 277.829 55.8632C278.84 55.7621 279.82 55.7115 280.768 55.7115C284.953 55.7115 288.064 56.7799 290.099 58.9167C292.135 61.0535 293.153 64.3283 293.153 68.741V78.4895H287.539V76.3843C286.957 76.7257 286.319 77.0481 285.624 77.3515C284.941 77.655 284.195 77.9205 283.386 78.1481C282.576 78.3757 281.704 78.5527 280.768 78.6792C279.845 78.8182 278.865 78.8878 277.829 78.8878C276.084 78.8878 274.547 78.6981 273.22 78.3188C271.905 77.9395 270.805 77.4148 269.92 76.7446C269.035 76.0745 268.365 75.2906 267.909 74.3929C267.467 73.4825 267.246 72.4963 267.246 71.4342ZM273.163 71.2445C273.163 71.6112 273.258 71.9652 273.447 72.3066C273.637 72.6354 273.941 72.9325 274.358 73.198C274.775 73.4509 275.306 73.6595 275.951 73.8239C276.608 73.9756 277.399 74.0515 278.322 74.0515C279.308 74.0515 280.262 73.963 281.185 73.786C282.108 73.609 282.968 73.375 283.765 73.0842C284.561 72.7934 285.282 72.4584 285.927 72.079C286.572 71.6997 287.109 71.3078 287.539 70.9032V69.9169C286.679 69.6767 285.826 69.4744 284.979 69.31C284.144 69.1456 283.341 69.0192 282.57 68.9307C281.811 68.8296 281.091 68.76 280.408 68.7221C279.738 68.6841 279.15 68.6652 278.644 68.6652C277.595 68.6652 276.722 68.7347 276.027 68.8738C275.331 69.0129 274.769 69.2025 274.339 69.4428C273.909 69.6704 273.605 69.9422 273.428 70.2583C273.251 70.5744 273.163 70.9032 273.163 71.2445ZM298.862 67.3945C298.862 65.6117 299.197 64.0059 299.867 62.5771C300.537 61.1357 301.46 59.9093 302.636 58.8978C303.824 57.8736 305.228 57.0897 306.846 56.546C308.477 55.9897 310.241 55.7115 312.138 55.7115C312.947 55.7115 313.744 55.7621 314.527 55.8632C315.324 55.9644 316.083 56.1035 316.803 56.2805C317.537 56.4575 318.22 56.6724 318.852 56.9253C319.497 57.1655 320.066 57.4311 320.559 57.7219V47.0251H326.173V78.4895H320.559V76.3843C320.066 76.7257 319.484 77.0481 318.814 77.3515C318.144 77.655 317.423 77.9205 316.652 78.1481C315.88 78.3757 315.078 78.5527 314.243 78.6792C313.421 78.8182 312.606 78.8878 311.796 78.8878C309.9 78.8878 308.155 78.6096 306.562 78.0533C304.981 77.497 303.622 76.713 302.484 75.7015C301.346 74.69 300.455 73.4825 299.81 72.079C299.178 70.6629 298.862 69.1014 298.862 67.3945ZM304.76 67.3945C304.76 68.2922 304.937 69.1393 305.291 69.9359C305.658 70.7325 306.176 71.4342 306.846 72.0411C307.529 72.6354 308.345 73.1095 309.293 73.4635C310.254 73.8049 311.329 73.9756 312.517 73.9756C313.276 73.9756 314.034 73.9061 314.793 73.767C315.552 73.6153 316.279 73.4066 316.974 73.1411C317.682 72.8756 318.34 72.5532 318.947 72.1739C319.566 71.7945 320.103 71.371 320.559 70.9032V63.1461C319.99 62.6909 319.389 62.3053 318.757 61.9892C318.125 61.6731 317.48 61.4139 316.822 61.2116C316.165 61.0093 315.501 60.8639 314.831 60.7754C314.161 60.6742 313.51 60.6237 312.877 60.6237C311.588 60.6237 310.437 60.8007 309.426 61.1547C308.427 61.4961 307.58 61.9702 306.884 62.5771C306.201 63.184 305.677 63.8984 305.31 64.7203C304.943 65.5421 304.76 66.4335 304.76 67.3945Z" fill="#3B3561"/>
<path d="M84.8634 167.755C84.0795 167.476 83.4473 167.059 82.9668 166.503C82.4611 165.947 82.0817 165.34 81.8289 164.682C81.5507 164.05 81.3863 163.405 81.3358 162.748C81.2599 162.09 81.2725 161.509 81.3737 161.003C81.4495 160.497 81.6013 160.105 81.8289 159.827C82.0312 159.574 82.2714 159.511 82.5496 159.637C82.5243 161.837 82.7898 163.494 83.3461 164.606C83.8772 165.744 84.5852 166.452 85.4703 166.73C86.3301 167.034 87.3163 166.971 88.429 166.541C89.5164 166.111 90.6164 165.441 91.7291 164.53C92.867 163.645 93.9417 162.571 94.9533 161.306C95.9901 160.067 96.8625 158.765 97.5705 157.399C98.2786 156.059 98.7844 154.731 99.0878 153.416C99.3913 152.076 99.3786 150.862 99.0499 149.775C96.774 151.419 95.0038 152.455 93.7394 152.885C92.475 153.315 91.59 153.341 91.0842 152.961C90.6037 152.557 90.452 151.849 90.629 150.837C90.806 149.826 91.1854 148.713 91.767 147.499C92.3486 146.285 93.082 145.071 93.967 143.858C94.8521 142.619 95.7625 141.582 96.6981 140.747C97.6338 139.913 98.5315 139.382 99.3913 139.154C100.276 138.926 101.01 139.192 101.591 139.951C102.173 140.735 102.54 141.797 102.691 143.137C102.843 144.452 102.805 145.919 102.578 147.537C102.35 149.155 101.945 150.85 101.364 152.62C100.807 154.39 100.112 156.11 99.2775 157.779C98.443 159.473 97.482 161.041 96.3947 162.482C95.3326 163.924 94.182 165.125 92.9429 166.086C91.7038 167.047 90.4014 167.691 89.0359 168.02C87.6704 168.374 86.2795 168.286 84.8634 167.755ZM92.6015 148.94C92.5762 149.016 92.5509 149.155 92.5256 149.358C92.5256 149.56 92.5256 149.775 92.5256 150.003C92.5256 150.23 92.5256 150.445 92.5256 150.647C92.5509 150.85 92.5762 150.989 92.6015 151.065C93.4107 151.267 94.2452 151.077 95.105 150.496C95.9648 149.914 96.7487 149.168 97.4567 148.258C98.1901 147.347 98.797 146.386 99.2775 145.375C99.7832 144.363 100.087 143.516 100.188 142.833C100.314 142.151 100.188 141.771 99.8085 141.696C99.4292 141.594 98.7338 141.999 97.7223 142.909C97.4188 143.187 97.0142 143.567 96.5085 144.047C96.0027 144.528 95.4843 145.046 94.9533 145.602C94.4475 146.159 93.967 146.74 93.5118 147.347C93.082 147.929 92.7785 148.46 92.6015 148.94ZM106.94 156.641C106.181 156.388 105.599 156.008 105.195 155.503C104.816 154.972 104.563 154.39 104.436 153.758C104.31 153.126 104.284 152.468 104.36 151.785C104.461 151.077 104.613 150.407 104.816 149.775C105.574 148.966 106.421 148.043 107.357 147.006C108.318 145.944 109.329 144.907 110.391 143.896C111.454 142.884 112.554 141.948 113.692 141.089C114.855 140.204 116.031 139.533 117.219 139.078C117.624 138.901 117.94 138.914 118.167 139.116C118.42 139.293 118.597 139.584 118.699 139.989C118.8 140.393 118.838 140.861 118.812 141.392C118.812 141.923 118.774 142.441 118.699 142.947C118.623 143.453 118.522 143.908 118.395 144.313C118.269 144.717 118.142 144.996 118.016 145.147C117.712 145.501 117.118 145.919 116.233 146.399C115.373 146.88 114.412 147.411 113.35 147.992C112.288 148.549 111.226 149.13 110.164 149.737C109.102 150.344 108.229 150.951 107.547 151.558C106.864 152.139 106.459 152.721 106.333 153.303C106.206 153.884 106.56 154.415 107.395 154.896C108.255 154.997 109.291 154.959 110.505 154.782C111.744 154.58 112.996 154.327 114.261 154.023C115.55 153.695 116.789 153.366 117.978 153.037C119.166 152.683 120.14 152.405 120.899 152.203L121.354 152.62C120.797 153.353 119.887 154.023 118.623 154.63C117.358 155.237 115.993 155.743 114.526 156.147C113.059 156.527 111.631 156.78 110.24 156.906C108.849 157.007 107.749 156.919 106.94 156.641ZM116.005 142.151C115.98 142.125 115.79 142.239 115.436 142.492C115.082 142.72 114.64 143.036 114.109 143.44C113.603 143.82 113.047 144.25 112.44 144.73C111.858 145.185 111.314 145.615 110.809 146.02C110.328 146.424 109.924 146.778 109.595 147.082C109.266 147.36 109.127 147.499 109.178 147.499C109.582 147.575 110.101 147.524 110.733 147.347C111.39 147.145 112.06 146.867 112.743 146.513C113.451 146.159 114.121 145.767 114.754 145.337C115.386 144.882 115.879 144.439 116.233 144.009C116.612 143.579 116.802 143.2 116.802 142.871C116.827 142.543 116.562 142.302 116.005 142.151ZM123.668 156.641C123.642 156.59 123.63 156.451 123.63 156.223C123.63 155.996 123.642 155.844 123.668 155.768C123.743 155.49 123.883 155.01 124.085 154.327C124.287 153.619 124.502 152.885 124.73 152.127C124.957 151.343 125.172 150.609 125.375 149.927C125.577 149.244 125.716 148.763 125.792 148.485C125.893 148.131 126.007 147.727 126.133 147.271C126.26 146.791 126.285 146.336 126.209 145.906C125.83 145.855 125.362 145.906 124.806 146.058C124.249 146.184 123.693 146.298 123.137 146.399C122.605 146.475 122.1 146.475 121.619 146.399C121.164 146.298 120.835 145.994 120.633 145.489C120.936 144.856 121.392 144.452 121.999 144.275C122.605 144.073 123.263 143.933 123.971 143.858C124.679 143.782 125.349 143.668 125.981 143.516C126.639 143.365 127.157 143.023 127.537 142.492C127.764 141.835 128.03 141.038 128.333 140.102C128.662 139.141 129.003 138.143 129.357 137.106C129.711 136.069 130.091 135.045 130.495 134.033C130.925 133.022 131.368 132.124 131.823 131.34C132.101 131.163 132.329 131.15 132.506 131.302C132.683 131.454 132.809 131.682 132.885 131.985C132.986 132.263 133.049 132.554 133.075 132.857C133.1 133.161 133.1 133.363 133.075 133.464C132.923 134.122 132.657 134.83 132.278 135.588C131.924 136.322 131.583 137.068 131.254 137.826C130.95 138.585 130.698 139.344 130.495 140.102C130.318 140.861 130.318 141.582 130.495 142.264H138.651C138.676 142.264 138.739 142.353 138.84 142.53C138.941 142.682 139.03 142.808 139.106 142.909C139.232 143.263 139.093 143.504 138.689 143.63C138.284 143.756 137.74 143.845 137.057 143.896C136.375 143.921 135.591 143.946 134.706 143.971C133.846 143.971 133.011 144.035 132.202 144.161C131.418 144.262 130.71 144.452 130.078 144.73C129.446 144.983 129.016 145.375 128.788 145.906C128.131 147.6 127.524 149.307 126.968 151.027C126.411 152.721 125.88 154.441 125.375 156.185C125.324 156.261 125.223 156.388 125.071 156.565C124.919 156.716 124.755 156.856 124.578 156.982C124.401 157.083 124.224 157.121 124.047 157.096C123.895 157.071 123.769 156.919 123.668 156.641ZM157.351 156.641C158.388 153.303 159.323 150.66 160.158 148.713C161.018 146.74 161.726 145.362 162.282 144.578C162.864 143.794 163.256 143.542 163.458 143.82C163.66 144.098 163.635 144.806 163.382 145.944C163.155 147.082 162.649 148.612 161.865 150.534C161.106 152.43 160.031 154.605 158.641 157.058C158.438 157.134 158.198 157.146 157.92 157.096C157.642 157.045 157.452 156.893 157.351 156.641ZM163.989 138.395C163.938 138.269 163.913 138.041 163.913 137.713C163.913 137.384 163.938 137.182 163.989 137.106C164.571 136.903 165.013 136.878 165.317 137.03C165.62 137.182 165.81 137.409 165.886 137.713C165.961 137.991 165.949 138.294 165.848 138.623C165.772 138.952 165.633 139.205 165.43 139.382C165.228 139.533 164.988 139.559 164.71 139.458C164.457 139.331 164.217 138.977 163.989 138.395ZM170.02 156.641C169.995 156.59 169.982 156.451 169.982 156.223C169.982 155.996 169.995 155.844 170.02 155.768C170.096 155.49 170.235 155.01 170.437 154.327C170.64 153.619 170.855 152.885 171.082 152.127C171.31 151.343 171.525 150.609 171.727 149.927C171.929 149.244 172.068 148.763 172.144 148.485C172.245 148.131 172.359 147.727 172.486 147.271C172.612 146.791 172.637 146.336 172.562 145.906C172.182 145.855 171.714 145.906 171.158 146.058C170.602 146.184 170.045 146.298 169.489 146.399C168.958 146.475 168.452 146.475 167.972 146.399C167.517 146.298 167.188 145.994 166.986 145.489C167.289 144.856 167.744 144.452 168.351 144.275C168.958 144.073 169.616 143.933 170.324 143.858C171.032 143.782 171.702 143.668 172.334 143.516C172.991 143.365 173.51 143.023 173.889 142.492C174.117 141.835 174.382 141.038 174.686 140.102C175.015 139.141 175.356 138.143 175.71 137.106C176.064 136.069 176.443 135.045 176.848 134.033C177.278 133.022 177.72 132.124 178.175 131.34C178.454 131.163 178.681 131.15 178.858 131.302C179.035 131.454 179.162 131.682 179.238 131.985C179.339 132.263 179.402 132.554 179.427 132.857C179.453 133.161 179.453 133.363 179.427 133.464C179.276 134.122 179.01 134.83 178.631 135.588C178.277 136.322 177.935 137.068 177.607 137.826C177.303 138.585 177.05 139.344 176.848 140.102C176.671 140.861 176.671 141.582 176.848 142.264H185.003C185.028 142.264 185.092 142.353 185.193 142.53C185.294 142.682 185.383 142.808 185.458 142.909C185.585 143.263 185.446 143.504 185.041 143.63C184.637 143.756 184.093 143.845 183.41 143.896C182.727 143.921 181.943 143.946 181.058 143.971C180.199 143.971 179.364 144.035 178.555 144.161C177.771 144.262 177.063 144.452 176.431 144.73C175.798 144.983 175.369 145.375 175.141 145.906C174.483 147.6 173.877 149.307 173.32 151.027C172.764 152.721 172.233 154.441 171.727 156.185C171.677 156.261 171.575 156.388 171.424 156.565C171.272 156.716 171.108 156.856 170.931 156.982C170.754 157.083 170.577 157.121 170.399 157.096C170.248 157.071 170.121 156.919 170.02 156.641ZM219.597 156.185C218.636 155.528 217.941 154.719 217.511 153.758C217.081 152.772 216.765 151.722 216.562 150.609H216.145C214.097 152.278 212.314 153.53 210.797 154.365C209.305 155.199 208.04 155.718 207.004 155.92C205.967 156.097 205.158 156.008 204.576 155.654C203.994 155.3 203.615 154.795 203.438 154.137C203.286 153.454 203.324 152.658 203.552 151.747C203.779 150.837 204.171 149.927 204.728 149.016C205.284 148.081 206.005 147.196 206.89 146.361C207.775 145.527 208.786 144.844 209.924 144.313C211.088 143.782 212.365 143.453 213.755 143.327C215.172 143.175 216.689 143.327 218.307 143.782L218.725 143.327L223.845 133.047C224.528 133.148 224.933 133.452 225.059 133.957C225.186 134.463 225.173 135.02 225.021 135.626C224.895 136.233 224.692 136.828 224.414 137.409C224.161 137.966 223.972 138.37 223.845 138.623C223.769 138.775 223.618 139.066 223.39 139.495C223.188 139.925 222.935 140.444 222.631 141.051C222.353 141.632 222.05 142.252 221.721 142.909C221.392 143.567 221.076 144.199 220.773 144.806C220.495 145.388 220.242 145.906 220.014 146.361C219.787 146.791 219.648 147.069 219.597 147.196C219.142 148.131 218.927 149.13 218.952 150.192C219.003 151.229 219.066 152.228 219.142 153.189C219.243 153.644 219.445 154.023 219.749 154.327C220.052 154.605 220.368 154.87 220.697 155.123C221.051 155.351 221.392 155.579 221.721 155.806C222.075 156.034 222.366 156.312 222.594 156.641C222.492 156.969 222.29 157.134 221.987 157.134C221.683 157.159 221.367 157.108 221.038 156.982C220.71 156.856 220.406 156.704 220.128 156.527C219.85 156.35 219.673 156.236 219.597 156.185ZM205.448 154.479C205.55 154.908 205.929 155.035 206.586 154.858C207.269 154.681 208.066 154.314 208.976 153.758C209.886 153.176 210.847 152.481 211.859 151.672C212.896 150.862 213.819 150.053 214.628 149.244C215.462 148.435 216.107 147.689 216.562 147.006C217.043 146.323 217.195 145.817 217.018 145.489C216.234 145.059 215.361 144.844 214.4 144.844C213.439 144.844 212.478 145.021 211.517 145.375C210.582 145.704 209.671 146.184 208.786 146.816C207.927 147.423 207.193 148.131 206.586 148.94C206.005 149.75 205.588 150.635 205.335 151.596C205.107 152.531 205.145 153.492 205.448 154.479ZM226.918 156.641C225.856 156.211 225.186 155.566 224.907 154.706C224.655 153.846 224.667 152.898 224.945 151.861C225.223 150.799 225.704 149.712 226.387 148.599C227.07 147.461 227.828 146.424 228.663 145.489C229.497 144.553 230.332 143.769 231.166 143.137C232.026 142.479 232.759 142.113 233.366 142.037C234.934 141.835 236.16 141.948 237.046 142.378C237.956 142.783 238.575 143.377 238.904 144.161C239.233 144.945 239.321 145.868 239.17 146.93C239.018 147.967 238.677 149.016 238.146 150.078C237.64 151.141 236.97 152.165 236.135 153.151C235.326 154.137 234.416 154.972 233.404 155.654C232.418 156.312 231.368 156.754 230.256 156.982C229.143 157.184 228.03 157.071 226.918 156.641ZM226.501 154.479C226.703 155.288 227.133 155.743 227.79 155.844C228.448 155.92 229.206 155.756 230.066 155.351C230.951 154.921 231.874 154.314 232.835 153.53C233.796 152.721 234.669 151.849 235.452 150.913C236.262 149.977 236.919 149.042 237.425 148.106C237.956 147.145 238.209 146.311 238.184 145.602C238.184 144.894 237.842 144.363 237.159 144.009C236.502 143.63 235.389 143.554 233.821 143.782C233.467 144.11 233.012 144.515 232.456 144.996C231.899 145.451 231.318 145.957 230.711 146.513C230.129 147.069 229.548 147.676 228.966 148.334C228.384 148.966 227.879 149.623 227.449 150.306C227.019 150.989 226.703 151.684 226.501 152.392C226.324 153.1 226.324 153.796 226.501 154.479ZM255.025 156.641C254.949 155.806 255.013 154.984 255.215 154.175C255.442 153.341 255.733 152.531 256.087 151.747C256.467 150.938 256.859 150.142 257.263 149.358C257.693 148.549 258.06 147.765 258.363 147.006C258.667 146.222 258.882 145.463 259.008 144.73C259.134 143.971 259.084 143.225 258.856 142.492C258.224 142.264 257.491 142.315 256.656 142.644C255.847 142.973 254.987 143.478 254.077 144.161C253.167 144.819 252.218 145.602 251.232 146.513C250.271 147.398 249.323 148.308 248.387 149.244C247.477 150.154 246.604 151.027 245.77 151.861C244.935 152.696 244.177 153.391 243.494 153.947C242.836 154.479 242.28 154.82 241.825 154.972C241.37 155.098 241.066 154.934 240.915 154.479C240.889 154.453 241.028 154.137 241.332 153.53C241.661 152.898 242.053 152.114 242.508 151.178C242.988 150.243 243.507 149.231 244.063 148.144C244.645 147.057 245.188 146.045 245.694 145.109C246.2 144.148 246.642 143.339 247.022 142.682C247.401 142.024 247.641 141.67 247.742 141.62C248.273 141.974 248.539 142.366 248.539 142.796C248.564 143.2 248.501 143.63 248.349 144.085C248.197 144.515 248.02 144.958 247.818 145.413C247.641 145.868 247.616 146.323 247.742 146.778C248.147 146.5 248.703 146.121 249.411 145.64C250.145 145.135 250.929 144.616 251.763 144.085C252.623 143.554 253.508 143.036 254.418 142.53C255.354 142.024 256.226 141.632 257.036 141.354C257.845 141.051 258.566 140.886 259.198 140.861C259.855 140.836 260.336 141.025 260.639 141.43C260.943 141.835 261.031 142.505 260.905 143.44C260.803 144.351 260.412 145.602 259.729 147.196C259.653 147.373 259.463 147.803 259.16 148.485C258.882 149.143 258.566 149.863 258.211 150.647C257.883 151.406 257.567 152.127 257.263 152.81C256.985 153.467 256.808 153.884 256.732 154.061C256.707 154.162 256.669 154.352 256.618 154.63C256.593 154.883 256.555 155.174 256.505 155.503C256.454 155.806 256.378 156.11 256.277 156.413C256.176 156.691 256.049 156.906 255.898 157.058C255.746 157.21 255.569 157.197 255.367 157.02C255.164 156.818 255.05 156.691 255.025 156.641ZM265.305 156.641C264.546 156.388 263.964 156.008 263.56 155.503C263.181 154.972 262.928 154.39 262.801 153.758C262.675 153.126 262.649 152.468 262.725 151.785C262.827 151.077 262.978 150.407 263.181 149.775C263.939 148.966 264.786 148.043 265.722 147.006C266.683 145.944 267.694 144.907 268.757 143.896C269.819 142.884 270.919 141.948 272.057 141.089C273.22 140.204 274.396 139.533 275.584 139.078C275.989 138.901 276.305 138.914 276.533 139.116C276.785 139.293 276.962 139.584 277.064 139.989C277.165 140.393 277.203 140.861 277.177 141.392C277.177 141.923 277.139 142.441 277.064 142.947C276.988 143.453 276.887 143.908 276.76 144.313C276.634 144.717 276.507 144.996 276.381 145.147C276.077 145.501 275.483 145.919 274.598 146.399C273.738 146.88 272.777 147.411 271.715 147.992C270.653 148.549 269.591 149.13 268.529 149.737C267.467 150.344 266.594 150.951 265.912 151.558C265.229 152.139 264.824 152.721 264.698 153.303C264.571 153.884 264.925 154.415 265.76 154.896C266.62 154.997 267.656 154.959 268.87 154.782C270.109 154.58 271.361 154.327 272.626 154.023C273.915 153.695 275.154 153.366 276.343 153.037C277.531 152.683 278.505 152.405 279.264 152.203L279.719 152.62C279.162 153.353 278.252 154.023 276.988 154.63C275.723 155.237 274.358 155.743 272.891 156.147C271.424 156.527 269.996 156.78 268.605 156.906C267.214 157.007 266.114 156.919 265.305 156.641ZM274.37 142.151C274.345 142.125 274.155 142.239 273.801 142.492C273.447 142.72 273.005 143.036 272.474 143.44C271.968 143.82 271.412 144.25 270.805 144.73C270.223 145.185 269.68 145.615 269.174 146.02C268.693 146.424 268.289 146.778 267.96 147.082C267.631 147.36 267.492 147.499 267.543 147.499C267.947 147.575 268.466 147.524 269.098 147.347C269.755 147.145 270.426 146.867 271.108 146.513C271.816 146.159 272.486 145.767 273.119 145.337C273.751 144.882 274.244 144.439 274.598 144.009C274.977 143.579 275.167 143.2 275.167 142.871C275.192 142.543 274.927 142.302 274.37 142.151Z" fill="white"/>
</svg>
