<svg width="259" height="308" viewBox="0 0 259 308" fill="none" xmlns="http://www.w3.org/2000/svg">
<g filter="url(#filter0_d_10_581)">
<path d="M255 125.5C255 194.812 198.812 251 129.5 251C60.1883 251 4 194.812 4 125.5C4 56.1883 60.1883 0 129.5 0C198.812 0 255 56.1883 255 125.5Z" fill="white"/>
</g>
<g filter="url(#filter1_d_10_581)">
<path d="M214.622 197.526C214.622 183.052 212.42 168.719 208.142 155.346C203.864 141.973 197.594 129.823 189.69 119.588C181.786 109.353 172.402 101.234 162.075 95.6946C151.747 90.1554 140.678 87.3044 129.5 87.3044C118.322 87.3044 107.253 90.1554 96.9253 95.6946C86.5979 101.234 77.2141 109.353 69.3098 119.588C61.4056 129.823 55.1355 141.973 50.8578 155.346C46.58 168.719 44.3783 183.052 44.3783 197.526L129.5 197.526H214.622Z" fill="#3B3561"/>
</g>
<path d="M183.52 65.4783C183.52 93.768 159.437 117.315 128.954 117.315C98.4721 117.315 74.3891 93.768 74.3891 65.4783C74.3891 37.1886 98.4721 13.6413 128.954 13.6413C159.437 13.6413 183.52 37.1886 183.52 65.4783Z" fill="#51A3A3" stroke="white" stroke-width="16.3696"/>
<defs>
<filter id="filter0_d_10_581" x="0.347768" y="0" width="258.304" height="258.304" filterUnits="userSpaceOnUse" color-interpolation-filters="sRGB">
<feFlood flood-opacity="0" result="BackgroundImageFix"/>
<feColorMatrix in="SourceAlpha" type="matrix" values="0 0 0 0 0 0 0 0 0 0 0 0 0 0 0 0 0 0 127 0" result="hardAlpha"/>
<feOffset dy="3.65223"/>
<feGaussianBlur stdDeviation="1.82612"/>
<feComposite in2="hardAlpha" operator="out"/>
<feColorMatrix type="matrix" values="0 0 0 0 0 0 0 0 0 0 0 0 0 0 0 0 0 0 0.25 0"/>
<feBlend mode="normal" in2="BackgroundImageFix" result="effect1_dropShadow_10_581"/>
<feBlend mode="normal" in="SourceGraphic" in2="effect1_dropShadow_10_581" result="shape"/>
</filter>
<filter id="filter1_d_10_581" x="40.013" y="87.3044" width="178.974" height="118.952" filterUnits="userSpaceOnUse" color-interpolation-filters="sRGB">
<feFlood flood-opacity="0" result="BackgroundImageFix"/>
<feColorMatrix in="SourceAlpha" type="matrix" values="0 0 0 0 0 0 0 0 0 0 0 0 0 0 0 0 0 0 127 0" result="hardAlpha"/>
<feOffset dy="4.36522"/>
<feGaussianBlur stdDeviation="2.18261"/>
<feComposite in2="hardAlpha" operator="out"/>
<feColorMatrix type="matrix" values="0 0 0 0 0 0 0 0 0 0 0 0 0 0 0 0 0 0 0.25 0"/>
<feBlend mode="normal" in2="BackgroundImageFix" result="effect1_dropShadow_10_581"/>
<feBlend mode="normal" in="SourceGraphic" in2="effect1_dropShadow_10_581" result="shape"/>
</filter>
</defs>
</svg>
