<svg width="353" height="76" viewBox="0 0 353 76" fill="none" xmlns="http://www.w3.org/2000/svg">
<path d="M137.151 23.1768H128.699V19.1045H150.247V23.1768H141.795V42H137.151V23.1768ZM153.851 36.5508C153.851 35.7207 154.031 34.9639 154.393 34.2803C154.754 33.5967 155.296 33.0107 156.019 32.5225C156.741 32.0244 157.64 31.6436 158.714 31.3799C159.798 31.1064 161.058 30.9697 162.493 30.9697C163.558 30.9697 164.676 31.0479 165.848 31.2041C167.029 31.3604 168.245 31.5996 169.495 31.9219C169.446 31.375 169.28 30.8721 168.997 30.4131C168.714 29.9443 168.318 29.5439 167.811 29.2119C167.312 28.8701 166.707 28.6064 165.994 28.4209C165.291 28.2354 164.49 28.1426 163.592 28.1426C163.104 28.1426 162.566 28.1719 161.98 28.2305C161.395 28.2891 160.789 28.377 160.164 28.4941C159.539 28.6113 158.919 28.7578 158.304 28.9336C157.698 29.1094 157.132 29.3193 156.604 29.5635L155.286 26.0039C155.94 25.7695 156.639 25.5547 157.381 25.3594C158.133 25.1641 158.899 24.998 159.681 24.8613C160.462 24.7148 161.243 24.6025 162.024 24.5244C162.806 24.4463 163.562 24.4072 164.295 24.4072C167.527 24.4072 169.93 25.2324 171.502 26.8828C173.074 28.5332 173.86 31.0625 173.86 34.4707V42H169.524V40.374C169.075 40.6377 168.582 40.8867 168.045 41.1211C167.518 41.3555 166.941 41.5605 166.316 41.7363C165.691 41.9121 165.018 42.0488 164.295 42.1465C163.582 42.2539 162.825 42.3076 162.024 42.3076C160.677 42.3076 159.49 42.1611 158.465 41.8682C157.449 41.5752 156.6 41.1699 155.916 40.6523C155.232 40.1348 154.715 39.5293 154.363 38.8359C154.021 38.1328 153.851 37.3711 153.851 36.5508ZM158.421 36.4043C158.421 36.6875 158.494 36.9609 158.641 37.2246C158.787 37.4785 159.021 37.708 159.344 37.9131C159.666 38.1084 160.076 38.2695 160.574 38.3965C161.082 38.5137 161.692 38.5723 162.405 38.5723C163.167 38.5723 163.904 38.5039 164.617 38.3672C165.33 38.2305 165.994 38.0498 166.609 37.8252C167.225 37.6006 167.781 37.3418 168.279 37.0488C168.777 36.7559 169.192 36.4531 169.524 36.1406V35.3789C168.86 35.1934 168.201 35.0371 167.547 34.9102C166.902 34.7832 166.282 34.6855 165.687 34.6172C165.101 34.5391 164.544 34.4854 164.017 34.4561C163.499 34.4268 163.045 34.4121 162.654 34.4121C161.844 34.4121 161.17 34.4658 160.633 34.5732C160.096 34.6807 159.661 34.8271 159.329 35.0127C158.997 35.1885 158.763 35.3984 158.626 35.6426C158.489 35.8867 158.421 36.1406 158.421 36.4043ZM180.291 36.6973C181.463 37.4004 182.752 37.918 184.158 38.25C185.564 38.582 187.005 38.748 188.479 38.748C189.476 38.748 190.306 38.6797 190.97 38.543C191.634 38.4062 192.166 38.2305 192.566 38.0156C192.967 37.8008 193.25 37.5566 193.416 37.2832C193.582 37.0098 193.665 36.7314 193.665 36.4482C193.665 36.0381 193.484 35.6865 193.123 35.3936C192.771 35.1006 192.186 34.9541 191.365 34.9541C190.984 34.9541 190.574 34.9785 190.135 35.0273C189.695 35.0762 189.231 35.1299 188.743 35.1885C188.265 35.2373 187.762 35.2861 187.234 35.335C186.717 35.3838 186.189 35.4082 185.652 35.4082C184.48 35.4082 183.479 35.2812 182.649 35.0273C181.829 34.7734 181.16 34.4268 180.643 33.9873C180.125 33.5479 179.749 33.0303 179.515 32.4346C179.28 31.8291 179.163 31.1797 179.163 30.4863C179.163 29.6074 179.368 28.7969 179.778 28.0547C180.188 27.3125 180.774 26.6729 181.536 26.1357C182.298 25.5889 183.216 25.1641 184.29 24.8613C185.374 24.5586 186.58 24.4072 187.908 24.4072C188.602 24.4072 189.324 24.4512 190.076 24.5391C190.838 24.6172 191.585 24.7246 192.317 24.8613C193.05 24.998 193.753 25.1592 194.427 25.3447C195.101 25.5205 195.696 25.7109 196.214 25.916L194.852 29.2852C193.748 28.875 192.645 28.5527 191.541 28.3184C190.447 28.0742 189.319 27.9521 188.157 27.9521C187.347 27.9521 186.658 28.0156 186.092 28.1426C185.535 28.2598 185.081 28.4209 184.729 28.626C184.378 28.8213 184.119 29.0508 183.953 29.3145C183.797 29.5684 183.719 29.8369 183.719 30.1201C183.719 30.3252 183.758 30.5107 183.836 30.6768C183.924 30.8428 184.061 30.9893 184.246 31.1162C184.441 31.2334 184.69 31.3262 184.993 31.3945C185.306 31.4531 185.687 31.4824 186.136 31.4824C186.546 31.4824 186.98 31.458 187.439 31.4092C187.898 31.3604 188.377 31.3115 188.875 31.2627C189.373 31.2041 189.886 31.1504 190.413 31.1016C190.95 31.0527 191.497 31.0283 192.054 31.0283C193.089 31.0283 193.992 31.1504 194.764 31.3945C195.545 31.6387 196.189 31.9805 196.697 32.4199C197.205 32.8594 197.586 33.377 197.84 33.9727C198.094 34.5684 198.221 35.2178 198.221 35.9209C198.221 36.8291 198.011 37.6738 197.591 38.4551C197.171 39.2363 196.546 39.915 195.716 40.4912C194.886 41.0576 193.851 41.502 192.61 41.8242C191.38 42.1465 189.954 42.3076 188.333 42.3076C187.337 42.3076 186.375 42.2441 185.447 42.1172C184.52 42 183.636 41.8389 182.796 41.6338C181.956 41.4189 181.165 41.1699 180.423 40.8867C179.69 40.6035 179.021 40.3008 178.416 39.9785L180.291 36.6973ZM202.146 17.6982H206.482V32.0537L214.568 24.7148H221.204L212.166 32.8008L221.775 42H215.271L208.841 35.7744L206.482 37.8838V42H202.146V17.6982ZM226.243 35.1885C227.073 35.6572 227.913 36.082 228.763 36.4629C229.622 36.834 230.511 37.1514 231.429 37.415C232.347 37.6689 233.309 37.8643 234.314 38.001C235.33 38.1377 236.409 38.2061 237.552 38.2061C238.929 38.2061 240.101 38.1182 241.067 37.9424C242.034 37.7568 242.82 37.5078 243.426 37.1953C244.041 36.873 244.485 36.4922 244.759 36.0527C245.042 35.6133 245.184 35.1348 245.184 34.6172C245.184 33.7871 244.837 33.1328 244.144 32.6543C243.45 32.166 242.381 31.9219 240.936 31.9219C240.301 31.9219 239.632 31.9658 238.929 32.0537C238.226 32.1318 237.513 32.2197 236.79 32.3174C236.077 32.415 235.369 32.5078 234.666 32.5957C233.973 32.6738 233.318 32.7129 232.703 32.7129C231.678 32.7129 230.691 32.5811 229.744 32.3174C228.807 32.0537 227.972 31.6582 227.239 31.1309C226.517 30.6035 225.94 29.9443 225.511 29.1533C225.081 28.3623 224.866 27.4395 224.866 26.3848C224.866 25.7598 224.949 25.1396 225.115 24.5244C225.291 23.9092 225.564 23.3232 225.936 22.7666C226.316 22.2002 226.805 21.6777 227.4 21.1992C227.996 20.7109 228.714 20.291 229.554 19.9395C230.403 19.5879 231.38 19.3145 232.483 19.1191C233.597 18.9141 234.861 18.8115 236.277 18.8115C237.303 18.8115 238.333 18.8701 239.368 18.9873C240.403 19.0947 241.409 19.251 242.386 19.4561C243.372 19.6611 244.319 19.9102 245.228 20.2031C246.136 20.4863 246.98 20.8037 247.762 21.1553L245.726 24.9053C245.081 24.6221 244.388 24.3633 243.646 24.1289C242.903 23.8848 242.127 23.6748 241.316 23.499C240.506 23.3232 239.666 23.1865 238.797 23.0889C237.938 22.9814 237.059 22.9277 236.16 22.9277C234.881 22.9277 233.826 23.0205 232.996 23.2061C232.176 23.3916 231.521 23.6309 231.033 23.9238C230.545 24.207 230.203 24.5293 230.008 24.8906C229.822 25.2422 229.729 25.5938 229.729 25.9453C229.729 26.6289 230.037 27.1904 230.652 27.6299C231.268 28.0596 232.205 28.2744 233.465 28.2744C233.973 28.2744 234.554 28.2402 235.208 28.1719C235.872 28.0938 236.565 28.0107 237.288 27.9229C238.021 27.835 238.763 27.7568 239.515 27.6885C240.276 27.6104 241.014 27.5713 241.727 27.5713C243.074 27.5713 244.266 27.7227 245.301 28.0254C246.346 28.3281 247.22 28.7627 247.923 29.3291C248.626 29.8857 249.158 30.5645 249.52 31.3652C249.881 32.1562 250.062 33.0449 250.062 34.0312C250.062 35.3496 249.754 36.5264 249.139 37.5615C248.533 38.5869 247.664 39.4561 246.531 40.1689C245.408 40.8721 244.051 41.4092 242.459 41.7803C240.867 42.1416 239.095 42.3223 237.142 42.3223C235.853 42.3223 234.593 42.2393 233.362 42.0732C232.132 41.917 230.95 41.6924 229.817 41.3994C228.694 41.0967 227.62 40.7402 226.595 40.3301C225.579 39.9102 224.637 39.4512 223.768 38.9531L226.243 35.1885ZM253.592 33.4307C253.592 32.0537 253.851 30.8135 254.368 29.71C254.886 28.5967 255.599 27.6494 256.507 26.8682C257.425 26.0771 258.509 25.4717 259.759 25.0518C261.019 24.6221 262.381 24.4072 263.846 24.4072C265.105 24.4072 266.263 24.5537 267.317 24.8467C268.372 25.1299 269.285 25.501 270.057 25.96V24.7148H274.393V49.0605H270.057V40.374C269.676 40.6377 269.241 40.8867 268.753 41.1211C268.265 41.3555 267.742 41.5605 267.186 41.7363C266.629 41.9121 266.043 42.0488 265.428 42.1465C264.822 42.2539 264.207 42.3076 263.582 42.3076C262.117 42.3076 260.77 42.0928 259.539 41.6631C258.318 41.2334 257.269 40.6279 256.39 39.8467C255.511 39.0654 254.822 38.1328 254.324 37.0488C253.836 35.9551 253.592 34.749 253.592 33.4307ZM258.147 33.4307C258.147 34.124 258.284 34.7783 258.558 35.3936C258.841 36.0088 259.241 36.5508 259.759 37.0195C260.286 37.4785 260.916 37.8447 261.648 38.1182C262.391 38.3818 263.221 38.5137 264.139 38.5137C264.725 38.5137 265.296 38.46 265.853 38.3525C266.409 38.2354 266.937 38.0742 267.435 37.8691C267.942 37.6641 268.416 37.415 268.855 37.1221C269.305 36.8291 269.705 36.502 270.057 36.1406V30.1494C269.168 29.4463 268.25 28.9482 267.303 28.6553C266.365 28.3525 265.403 28.2012 264.417 28.2012C263.421 28.2012 262.532 28.3379 261.751 28.6113C260.979 28.875 260.325 29.2412 259.788 29.71C259.261 30.1787 258.855 30.7305 258.572 31.3652C258.289 32 258.147 32.6885 258.147 33.4307ZM279.71 24.7002H284.031V33.1377C284.031 33.9385 284.119 34.6709 284.295 35.335C284.471 35.9893 284.769 36.5508 285.188 37.0195C285.618 37.4883 286.185 37.8545 286.888 38.1182C287.601 38.3721 288.484 38.499 289.539 38.499C290.037 38.499 290.54 38.4453 291.048 38.3379C291.565 38.2305 292.059 38.084 292.527 37.8984C292.996 37.7031 293.431 37.4736 293.831 37.21C294.241 36.9463 294.593 36.6582 294.886 36.3457V24.7002H299.222V42H294.886V40.5205C293.821 41.1553 292.752 41.6094 291.678 41.8828C290.604 42.1562 289.583 42.293 288.616 42.293C287.034 42.293 285.677 42.1025 284.544 41.7217C283.421 41.3408 282.498 40.7891 281.775 40.0664C281.062 39.334 280.54 38.4404 280.208 37.3857C279.876 36.3213 279.71 35.1104 279.71 33.7529V24.7002ZM303.909 36.5508C303.909 35.7207 304.09 34.9639 304.451 34.2803C304.812 33.5967 305.354 33.0107 306.077 32.5225C306.8 32.0244 307.698 31.6436 308.772 31.3799C309.856 31.1064 311.116 30.9697 312.552 30.9697C313.616 30.9697 314.734 31.0479 315.906 31.2041C317.088 31.3604 318.304 31.5996 319.554 31.9219C319.505 31.375 319.339 30.8721 319.056 30.4131C318.772 29.9443 318.377 29.5439 317.869 29.2119C317.371 28.8701 316.766 28.6064 316.053 28.4209C315.35 28.2354 314.549 28.1426 313.65 28.1426C313.162 28.1426 312.625 28.1719 312.039 28.2305C311.453 28.2891 310.848 28.377 310.223 28.4941C309.598 28.6113 308.978 28.7578 308.362 28.9336C307.757 29.1094 307.19 29.3193 306.663 29.5635L305.345 26.0039C305.999 25.7695 306.697 25.5547 307.439 25.3594C308.191 25.1641 308.958 24.998 309.739 24.8613C310.521 24.7148 311.302 24.6025 312.083 24.5244C312.864 24.4463 313.621 24.4072 314.354 24.4072C317.586 24.4072 319.988 25.2324 321.561 26.8828C323.133 28.5332 323.919 31.0625 323.919 34.4707V42H319.583V40.374C319.134 40.6377 318.641 40.8867 318.104 41.1211C317.576 41.3555 317 41.5605 316.375 41.7363C315.75 41.9121 315.076 42.0488 314.354 42.1465C313.641 42.2539 312.884 42.3076 312.083 42.3076C310.735 42.3076 309.549 42.1611 308.523 41.8682C307.508 41.5752 306.658 41.1699 305.975 40.6523C305.291 40.1348 304.773 39.5293 304.422 38.8359C304.08 38.1328 303.909 37.3711 303.909 36.5508ZM308.479 36.4043C308.479 36.6875 308.553 36.9609 308.699 37.2246C308.846 37.4785 309.08 37.708 309.402 37.9131C309.725 38.1084 310.135 38.2695 310.633 38.3965C311.141 38.5137 311.751 38.5723 312.464 38.5723C313.226 38.5723 313.963 38.5039 314.676 38.3672C315.389 38.2305 316.053 38.0498 316.668 37.8252C317.283 37.6006 317.84 37.3418 318.338 37.0488C318.836 36.7559 319.251 36.4531 319.583 36.1406V35.3789C318.919 35.1934 318.26 35.0371 317.605 34.9102C316.961 34.7832 316.341 34.6855 315.745 34.6172C315.159 34.5391 314.603 34.4854 314.075 34.4561C313.558 34.4268 313.104 34.4121 312.713 34.4121C311.902 34.4121 311.229 34.4658 310.691 34.5732C310.154 34.6807 309.72 34.8271 309.388 35.0127C309.056 35.1885 308.821 35.3984 308.685 35.6426C308.548 35.8867 308.479 36.1406 308.479 36.4043ZM328.328 33.4307C328.328 32.0537 328.587 30.8135 329.104 29.71C329.622 28.5967 330.335 27.6494 331.243 26.8682C332.161 26.0771 333.245 25.4717 334.495 25.0518C335.755 24.6221 337.117 24.4072 338.582 24.4072C339.207 24.4072 339.822 24.4463 340.428 24.5244C341.043 24.6025 341.629 24.71 342.186 24.8467C342.752 24.9834 343.279 25.1494 343.768 25.3447C344.266 25.5303 344.705 25.7354 345.086 25.96V17.6982H349.422V42H345.086V40.374C344.705 40.6377 344.256 40.8867 343.738 41.1211C343.221 41.3555 342.664 41.5605 342.068 41.7363C341.473 41.9121 340.853 42.0488 340.208 42.1465C339.573 42.2539 338.943 42.3076 338.318 42.3076C336.854 42.3076 335.506 42.0928 334.275 41.6631C333.055 41.2334 332.005 40.6279 331.126 39.8467C330.247 39.0654 329.559 38.1328 329.061 37.0488C328.572 35.9551 328.328 34.749 328.328 33.4307ZM332.884 33.4307C332.884 34.124 333.021 34.7783 333.294 35.3936C333.577 36.0088 333.978 36.5508 334.495 37.0195C335.022 37.4785 335.652 37.8447 336.385 38.1182C337.127 38.3818 337.957 38.5137 338.875 38.5137C339.461 38.5137 340.047 38.46 340.633 38.3525C341.219 38.2354 341.78 38.0742 342.317 37.8691C342.864 37.6641 343.372 37.415 343.841 37.1221C344.319 36.8291 344.734 36.502 345.086 36.1406V30.1494C344.646 29.7979 344.183 29.5 343.694 29.2559C343.206 29.0117 342.708 28.8115 342.2 28.6553C341.692 28.499 341.18 28.3867 340.662 28.3184C340.145 28.2402 339.642 28.2012 339.153 28.2012C338.157 28.2012 337.269 28.3379 336.487 28.6113C335.716 28.875 335.062 29.2412 334.524 29.71C333.997 30.1787 333.592 30.7305 333.309 31.3652C333.025 32 332.884 32.6885 332.884 33.4307Z" fill="#3B3561"/>
<mask id="path-2-inside-1_19_2" fill="white">
<path d="M53.6292 56.9031C53.6292 52.2148 52.9356 47.5724 51.5881 43.241C50.2405 38.9095 48.2654 34.9739 45.7754 31.6588C43.2854 28.3436 40.3294 25.7139 37.0761 23.9198C33.8228 22.1257 30.3359 21.2022 26.8146 21.2022C23.2933 21.2022 19.8064 22.1257 16.5531 23.9198C13.2998 25.7139 10.3438 28.3436 7.85382 31.6588C5.36385 34.9739 3.3887 38.9095 2.04114 43.241C0.69358 47.5724 -3.07846e-07 52.2148 0 56.9031L26.8146 56.9031H53.6292Z"/>
</mask>
<path d="M53.6292 56.9031C53.6292 52.2148 52.9356 47.5724 51.5881 43.241C50.2405 38.9095 48.2654 34.9739 45.7754 31.6588C43.2854 28.3436 40.3294 25.7139 37.0761 23.9198C33.8228 22.1257 30.3359 21.2022 26.8146 21.2022C23.2933 21.2022 19.8064 22.1257 16.5531 23.9198C13.2998 25.7139 10.3438 28.3436 7.85382 31.6588C5.36385 34.9739 3.3887 38.9095 2.04114 43.241C0.69358 47.5724 -3.07846e-07 52.2148 0 56.9031L26.8146 56.9031H53.6292Z" fill="#D9D9D9" stroke="white" stroke-width="9.35393" mask="url(#path-2-inside-1_19_2)"/>
<mask id="path-3-inside-2_19_2" fill="white">
<path d="M111 56.9031C111 52.2148 110.306 47.5724 108.959 43.241C107.611 38.9095 105.636 34.9739 103.146 31.6588C100.656 28.3436 97.7002 25.7139 94.4469 23.9198C91.1936 22.1257 87.7067 21.2022 84.1854 21.2022C80.664 21.2022 77.1772 22.1257 73.9239 23.9198C70.6706 25.7139 67.7146 28.3436 65.2246 31.6588C62.7346 34.9739 60.7595 38.9095 59.4119 43.241C58.0644 47.5724 57.3708 52.2148 57.3708 56.9031L84.1854 56.9031H111Z"/>
</mask>
<path d="M111 56.9031C111 52.2148 110.306 47.5724 108.959 43.241C107.611 38.9095 105.636 34.9739 103.146 31.6588C100.656 28.3436 97.7002 25.7139 94.4469 23.9198C91.1936 22.1257 87.7067 21.2022 84.1854 21.2022C80.664 21.2022 77.1772 22.1257 73.9239 23.9198C70.6706 25.7139 67.7146 28.3436 65.2246 31.6588C62.7346 34.9739 60.7595 38.9095 59.4119 43.241C58.0644 47.5724 57.3708 52.2148 57.3708 56.9031L84.1854 56.9031H111Z" fill="#D9D9D9" stroke="white" stroke-width="9.35393" mask="url(#path-3-inside-2_19_2)"/>
<mask id="path-4-inside-3_19_2" fill="white">
<path d="M82.6264 71.8694C82.6264 67.1811 81.9328 62.5387 80.5853 58.2073C79.2377 53.8758 77.2626 49.9402 74.7726 46.6251C72.2826 43.31 69.3266 40.6802 66.0733 38.8861C62.82 37.092 59.3331 36.1685 55.8118 36.1685C52.2905 36.1685 48.8036 37.092 45.5503 38.8861C42.297 40.6802 39.341 43.31 36.851 46.6251C34.361 49.9402 32.3859 53.8758 31.0383 58.2073C29.6908 62.5387 28.9972 67.1811 28.9972 71.8694L55.8118 71.8694H82.6264Z"/>
</mask>
<path d="M82.6264 71.8694C82.6264 67.1811 81.9328 62.5387 80.5853 58.2073C79.2377 53.8758 77.2626 49.9402 74.7726 46.6251C72.2826 43.31 69.3266 40.6802 66.0733 38.8861C62.82 37.092 59.3331 36.1685 55.8118 36.1685C52.2905 36.1685 48.8036 37.092 45.5503 38.8861C42.297 40.6802 39.341 43.31 36.851 46.6251C34.361 49.9402 32.3859 53.8758 31.0383 58.2073C29.6908 62.5387 28.9972 67.1811 28.9972 71.8694L55.8118 71.8694H82.6264Z" fill="#D9D9D9" stroke="white" stroke-width="9.35393" mask="url(#path-4-inside-3_19_2)"/>
<path d="M99.6194 17.1489C99.6194 25.2316 92.7386 31.9593 84.0295 31.9593C75.3204 31.9593 68.4396 25.2316 68.4396 17.1489C68.4396 9.0662 75.3204 2.33848 84.0295 2.33848C92.7386 2.33848 99.6194 9.0662 99.6194 17.1489Z" fill="#51A3A3" stroke="white" stroke-width="4.67697"/>
<path d="M42.2486 17.1489C42.2486 25.2316 35.3678 31.9593 26.6587 31.9593C17.9496 31.9593 11.0688 25.2316 11.0688 17.1489C11.0688 9.0662 17.9496 2.33848 26.6587 2.33848C35.3678 2.33848 42.2486 9.0662 42.2486 17.1489Z" fill="#DD7373" stroke="white" stroke-width="4.67697"/>
<path d="M71.2458 31.4916C71.2458 39.5742 64.365 46.302 55.6559 46.302C46.9468 46.302 40.066 39.5742 40.066 31.4916C40.066 23.4089 46.9468 16.6812 55.6559 16.6812C64.365 16.6812 71.2458 23.4089 71.2458 31.4916Z" fill="#3B3561" stroke="white" stroke-width="4.67697"/>
</svg>
