<svg width="570" height="289" viewBox="0 0 570 289" fill="none" xmlns="http://www.w3.org/2000/svg">
<rect x="5" y="5" width="560" height="279" rx="32" stroke="#3B3561" stroke-width="10" stroke-linejoin="round"/>
<path d="M0 172H570V261H0V172Z" fill="#3B3561"/>
<rect x="5" y="205" width="560" height="79" rx="32" fill="#3B3561" stroke="#3B3561" stroke-width="10" stroke-linejoin="round"/>
<path d="M79.3027 82.3535H62.3984V74.209H105.494V82.3535H88.5898V120H79.3027V82.3535ZM112.701 109.102C112.701 107.441 113.062 105.928 113.785 104.561C114.508 103.193 115.592 102.021 117.037 101.045C118.482 100.049 120.279 99.2871 122.428 98.7598C124.596 98.2129 127.115 97.9395 129.986 97.9395C132.115 97.9395 134.352 98.0957 136.695 98.4082C139.059 98.7207 141.49 99.1992 143.99 99.8438C143.893 98.75 143.561 97.7441 142.994 96.8262C142.428 95.8887 141.637 95.0879 140.621 94.4238C139.625 93.7402 138.414 93.2129 136.988 92.8418C135.582 92.4707 133.98 92.2852 132.184 92.2852C131.207 92.2852 130.133 92.3438 128.961 92.4609C127.789 92.5781 126.578 92.7539 125.328 92.9883C124.078 93.2227 122.838 93.5156 121.607 93.8672C120.396 94.2188 119.264 94.6387 118.209 95.127L115.572 88.0078C116.881 87.5391 118.277 87.1094 119.762 86.7188C121.266 86.3281 122.799 85.9961 124.361 85.7227C125.924 85.4297 127.486 85.2051 129.049 85.0488C130.611 84.8926 132.125 84.8145 133.59 84.8145C140.055 84.8145 144.859 86.4648 148.004 89.7656C151.148 93.0664 152.721 98.125 152.721 104.941V120H144.049V116.748C143.15 117.275 142.164 117.773 141.09 118.242C140.035 118.711 138.883 119.121 137.633 119.473C136.383 119.824 135.035 120.098 133.59 120.293C132.164 120.508 130.65 120.615 129.049 120.615C126.354 120.615 123.98 120.322 121.93 119.736C119.898 119.15 118.199 118.34 116.832 117.305C115.465 116.27 114.43 115.059 113.727 113.672C113.043 112.266 112.701 110.742 112.701 109.102ZM121.842 108.809C121.842 109.375 121.988 109.922 122.281 110.449C122.574 110.957 123.043 111.416 123.688 111.826C124.332 112.217 125.152 112.539 126.148 112.793C127.164 113.027 128.385 113.145 129.811 113.145C131.334 113.145 132.809 113.008 134.234 112.734C135.66 112.461 136.988 112.1 138.219 111.65C139.449 111.201 140.562 110.684 141.559 110.098C142.555 109.512 143.385 108.906 144.049 108.281V106.758C142.721 106.387 141.402 106.074 140.094 105.82C138.805 105.566 137.564 105.371 136.373 105.234C135.201 105.078 134.088 104.971 133.033 104.912C131.998 104.854 131.09 104.824 130.309 104.824C128.688 104.824 127.34 104.932 126.266 105.146C125.191 105.361 124.322 105.654 123.658 106.025C122.994 106.377 122.525 106.797 122.252 107.285C121.979 107.773 121.842 108.281 121.842 108.809ZM165.582 109.395C167.926 110.801 170.504 111.836 173.316 112.5C176.129 113.164 179.01 113.496 181.959 113.496C183.951 113.496 185.611 113.359 186.939 113.086C188.268 112.812 189.332 112.461 190.133 112.031C190.934 111.602 191.5 111.113 191.832 110.566C192.164 110.02 192.33 109.463 192.33 108.896C192.33 108.076 191.969 107.373 191.246 106.787C190.543 106.201 189.371 105.908 187.73 105.908C186.969 105.908 186.148 105.957 185.27 106.055C184.391 106.152 183.463 106.26 182.486 106.377C181.529 106.475 180.523 106.572 179.469 106.67C178.434 106.768 177.379 106.816 176.305 106.816C173.961 106.816 171.959 106.562 170.299 106.055C168.658 105.547 167.32 104.854 166.285 103.975C165.25 103.096 164.498 102.061 164.029 100.869C163.561 99.6582 163.326 98.3594 163.326 96.9727C163.326 95.2148 163.736 93.5938 164.557 92.1094C165.377 90.625 166.549 89.3457 168.072 88.2715C169.596 87.1777 171.432 86.3281 173.58 85.7227C175.748 85.1172 178.16 84.8145 180.816 84.8145C182.203 84.8145 183.648 84.9023 185.152 85.0781C186.676 85.2344 188.17 85.4492 189.635 85.7227C191.1 85.9961 192.506 86.3184 193.854 86.6895C195.201 87.041 196.393 87.4219 197.428 87.832L194.703 94.5703C192.496 93.75 190.289 93.1055 188.082 92.6367C185.895 92.1484 183.639 91.9043 181.314 91.9043C179.693 91.9043 178.316 92.0312 177.184 92.2852C176.07 92.5195 175.162 92.8418 174.459 93.252C173.756 93.6426 173.238 94.1016 172.906 94.6289C172.594 95.1367 172.438 95.6738 172.438 96.2402C172.438 96.6504 172.516 97.0215 172.672 97.3535C172.848 97.6855 173.121 97.9785 173.492 98.2324C173.883 98.4668 174.381 98.6523 174.986 98.7891C175.611 98.9062 176.373 98.9648 177.271 98.9648C178.092 98.9648 178.961 98.916 179.879 98.8184C180.797 98.7207 181.754 98.623 182.75 98.5254C183.746 98.4082 184.771 98.3008 185.826 98.2031C186.9 98.1055 187.994 98.0566 189.107 98.0566C191.178 98.0566 192.984 98.3008 194.527 98.7891C196.09 99.2773 197.379 99.9609 198.395 100.84C199.41 101.719 200.172 102.754 200.68 103.945C201.188 105.137 201.441 106.436 201.441 107.842C201.441 109.658 201.021 111.348 200.182 112.91C199.342 114.473 198.092 115.83 196.432 116.982C194.771 118.115 192.701 119.004 190.221 119.648C187.76 120.293 184.908 120.615 181.666 120.615C179.674 120.615 177.75 120.488 175.895 120.234C174.039 120 172.271 119.678 170.592 119.268C168.912 118.838 167.33 118.34 165.846 117.773C164.381 117.207 163.043 116.602 161.832 115.957L165.582 109.395ZM209.293 71.3965H217.965V100.107L234.137 85.4297H247.408L229.332 101.602L248.551 120H235.543L222.682 107.549L217.965 111.768V120H209.293V71.3965ZM257.486 106.377C259.146 107.314 260.826 108.164 262.525 108.926C264.244 109.668 266.021 110.303 267.857 110.83C269.693 111.338 271.617 111.729 273.629 112.002C275.66 112.275 277.818 112.412 280.104 112.412C282.857 112.412 285.201 112.236 287.135 111.885C289.068 111.514 290.641 111.016 291.852 110.391C293.082 109.746 293.971 108.984 294.518 108.105C295.084 107.227 295.367 106.27 295.367 105.234C295.367 103.574 294.674 102.266 293.287 101.309C291.9 100.332 289.762 99.8438 286.871 99.8438C285.602 99.8438 284.264 99.9316 282.857 100.107C281.451 100.264 280.025 100.439 278.58 100.635C277.154 100.83 275.738 101.016 274.332 101.191C272.945 101.348 271.637 101.426 270.406 101.426C268.355 101.426 266.383 101.162 264.488 100.635C262.613 100.107 260.943 99.3164 259.479 98.2617C258.033 97.207 256.881 95.8887 256.021 94.3066C255.162 92.7246 254.732 90.8789 254.732 88.7695C254.732 87.5195 254.898 86.2793 255.23 85.0488C255.582 83.8184 256.129 82.6465 256.871 81.5332C257.633 80.4004 258.609 79.3555 259.801 78.3984C260.992 77.4219 262.428 76.582 264.107 75.8789C265.807 75.1758 267.76 74.6289 269.967 74.2383C272.193 73.8281 274.723 73.623 277.555 73.623C279.605 73.623 281.666 73.7402 283.736 73.9746C285.807 74.1895 287.818 74.502 289.771 74.9121C291.744 75.3223 293.639 75.8203 295.455 76.4062C297.271 76.9727 298.961 77.6074 300.523 78.3105L296.451 85.8105C295.162 85.2441 293.775 84.7266 292.291 84.2578C290.807 83.7695 289.254 83.3496 287.633 82.998C286.012 82.6465 284.332 82.373 282.594 82.1777C280.875 81.9629 279.117 81.8555 277.32 81.8555C274.762 81.8555 272.652 82.041 270.992 82.4121C269.352 82.7832 268.043 83.2617 267.066 83.8477C266.09 84.4141 265.406 85.0586 265.016 85.7812C264.645 86.4844 264.459 87.1875 264.459 87.8906C264.459 89.2578 265.074 90.3809 266.305 91.2598C267.535 92.1191 269.41 92.5488 271.93 92.5488C272.945 92.5488 274.107 92.4805 275.416 92.3438C276.744 92.1875 278.131 92.0215 279.576 91.8457C281.041 91.6699 282.525 91.5137 284.029 91.377C285.553 91.2207 287.027 91.1426 288.453 91.1426C291.148 91.1426 293.531 91.4453 295.602 92.0508C297.691 92.6562 299.439 93.5254 300.846 94.6582C302.252 95.7715 303.316 97.1289 304.039 98.7305C304.762 100.312 305.123 102.09 305.123 104.062C305.123 106.699 304.508 109.053 303.277 111.123C302.066 113.174 300.328 114.912 298.062 116.338C295.816 117.744 293.102 118.818 289.918 119.561C286.734 120.283 283.189 120.645 279.283 120.645C276.705 120.645 274.186 120.479 271.725 120.146C269.264 119.834 266.9 119.385 264.635 118.799C262.389 118.193 260.24 117.48 258.189 116.66C256.158 115.82 254.273 114.902 252.535 113.906L257.486 106.377ZM312.184 102.861C312.184 100.107 312.701 97.627 313.736 95.4199C314.771 93.1934 316.197 91.2988 318.014 89.7363C319.85 88.1543 322.018 86.9434 324.518 86.1035C327.037 85.2441 329.762 84.8145 332.691 84.8145C335.211 84.8145 337.525 85.1074 339.635 85.6934C341.744 86.2598 343.57 87.002 345.113 87.9199V85.4297H353.785V134.121H345.113V116.748C344.352 117.275 343.482 117.773 342.506 118.242C341.529 118.711 340.484 119.121 339.371 119.473C338.258 119.824 337.086 120.098 335.855 120.293C334.645 120.508 333.414 120.615 332.164 120.615C329.234 120.615 326.539 120.186 324.078 119.326C321.637 118.467 319.537 117.256 317.779 115.693C316.021 114.131 314.645 112.266 313.648 110.098C312.672 107.91 312.184 105.498 312.184 102.861ZM321.295 102.861C321.295 104.248 321.568 105.557 322.115 106.787C322.682 108.018 323.482 109.102 324.518 110.039C325.572 110.957 326.832 111.689 328.297 112.236C329.781 112.764 331.441 113.027 333.277 113.027C334.449 113.027 335.592 112.92 336.705 112.705C337.818 112.471 338.873 112.148 339.869 111.738C340.885 111.328 341.832 110.83 342.711 110.244C343.609 109.658 344.41 109.004 345.113 108.281V96.2988C343.336 94.8926 341.5 93.8965 339.605 93.3105C337.73 92.7051 335.807 92.4023 333.834 92.4023C331.842 92.4023 330.064 92.6758 328.502 93.2227C326.959 93.75 325.65 94.4824 324.576 95.4199C323.521 96.3574 322.711 97.4609 322.145 98.7305C321.578 100 321.295 101.377 321.295 102.861ZM364.42 85.4004H373.062V102.275C373.062 103.877 373.238 105.342 373.59 106.67C373.941 107.979 374.537 109.102 375.377 110.039C376.236 110.977 377.369 111.709 378.775 112.236C380.201 112.744 381.969 112.998 384.078 112.998C385.074 112.998 386.08 112.891 387.096 112.676C388.131 112.461 389.117 112.168 390.055 111.797C390.992 111.406 391.861 110.947 392.662 110.42C393.482 109.893 394.186 109.316 394.771 108.691V85.4004H403.443V120H394.771V117.041C392.643 118.311 390.504 119.219 388.355 119.766C386.207 120.312 384.166 120.586 382.232 120.586C379.068 120.586 376.354 120.205 374.088 119.443C371.842 118.682 369.996 117.578 368.551 116.133C367.125 114.668 366.08 112.881 365.416 110.771C364.752 108.643 364.42 106.221 364.42 103.506V85.4004ZM412.818 109.102C412.818 107.441 413.18 105.928 413.902 104.561C414.625 103.193 415.709 102.021 417.154 101.045C418.6 100.049 420.396 99.2871 422.545 98.7598C424.713 98.2129 427.232 97.9395 430.104 97.9395C432.232 97.9395 434.469 98.0957 436.812 98.4082C439.176 98.7207 441.607 99.1992 444.107 99.8438C444.01 98.75 443.678 97.7441 443.111 96.8262C442.545 95.8887 441.754 95.0879 440.738 94.4238C439.742 93.7402 438.531 93.2129 437.105 92.8418C435.699 92.4707 434.098 92.2852 432.301 92.2852C431.324 92.2852 430.25 92.3438 429.078 92.4609C427.906 92.5781 426.695 92.7539 425.445 92.9883C424.195 93.2227 422.955 93.5156 421.725 93.8672C420.514 94.2188 419.381 94.6387 418.326 95.127L415.689 88.0078C416.998 87.5391 418.395 87.1094 419.879 86.7188C421.383 86.3281 422.916 85.9961 424.479 85.7227C426.041 85.4297 427.604 85.2051 429.166 85.0488C430.729 84.8926 432.242 84.8145 433.707 84.8145C440.172 84.8145 444.977 86.4648 448.121 89.7656C451.266 93.0664 452.838 98.125 452.838 104.941V120H444.166V116.748C443.268 117.275 442.281 117.773 441.207 118.242C440.152 118.711 439 119.121 437.75 119.473C436.5 119.824 435.152 120.098 433.707 120.293C432.281 120.508 430.768 120.615 429.166 120.615C426.471 120.615 424.098 120.322 422.047 119.736C420.016 119.15 418.316 118.34 416.949 117.305C415.582 116.27 414.547 115.059 413.844 113.672C413.16 112.266 412.818 110.742 412.818 109.102ZM421.959 108.809C421.959 109.375 422.105 109.922 422.398 110.449C422.691 110.957 423.16 111.416 423.805 111.826C424.449 112.217 425.27 112.539 426.266 112.793C427.281 113.027 428.502 113.145 429.928 113.145C431.451 113.145 432.926 113.008 434.352 112.734C435.777 112.461 437.105 112.1 438.336 111.65C439.566 111.201 440.68 110.684 441.676 110.098C442.672 109.512 443.502 108.906 444.166 108.281V106.758C442.838 106.387 441.52 106.074 440.211 105.82C438.922 105.566 437.682 105.371 436.49 105.234C435.318 105.078 434.205 104.971 433.15 104.912C432.115 104.854 431.207 104.824 430.426 104.824C428.805 104.824 427.457 104.932 426.383 105.146C425.309 105.361 424.439 105.654 423.775 106.025C423.111 106.377 422.643 106.797 422.369 107.285C422.096 107.773 421.959 108.281 421.959 108.809ZM461.656 102.861C461.656 100.107 462.174 97.627 463.209 95.4199C464.244 93.1934 465.67 91.2988 467.486 89.7363C469.322 88.1543 471.49 86.9434 473.99 86.1035C476.51 85.2441 479.234 84.8145 482.164 84.8145C483.414 84.8145 484.645 84.8926 485.855 85.0488C487.086 85.2051 488.258 85.4199 489.371 85.6934C490.504 85.9668 491.559 86.2988 492.535 86.6895C493.531 87.0605 494.41 87.4707 495.172 87.9199V71.3965H503.844V120H495.172V116.748C494.41 117.275 493.512 117.773 492.477 118.242C491.441 118.711 490.328 119.121 489.137 119.473C487.945 119.824 486.705 120.098 485.416 120.293C484.146 120.508 482.887 120.615 481.637 120.615C478.707 120.615 476.012 120.186 473.551 119.326C471.109 118.467 469.01 117.256 467.252 115.693C465.494 114.131 464.117 112.266 463.121 110.098C462.145 107.91 461.656 105.498 461.656 102.861ZM470.768 102.861C470.768 104.248 471.041 105.557 471.588 106.787C472.154 108.018 472.955 109.102 473.99 110.039C475.045 110.957 476.305 111.689 477.77 112.236C479.254 112.764 480.914 113.027 482.75 113.027C483.922 113.027 485.094 112.92 486.266 112.705C487.438 112.471 488.561 112.148 489.635 111.738C490.729 111.328 491.744 110.83 492.682 110.244C493.639 109.658 494.469 109.004 495.172 108.281V96.2988C494.293 95.5957 493.365 95 492.389 94.5117C491.412 94.0234 490.416 93.623 489.4 93.3105C488.385 92.998 487.359 92.7734 486.324 92.6367C485.289 92.4805 484.283 92.4023 483.307 92.4023C481.314 92.4023 479.537 92.6758 477.975 93.2227C476.432 93.75 475.123 94.4824 474.049 95.4199C472.994 96.3574 472.184 97.4609 471.617 98.7305C471.051 100 470.768 101.377 470.768 102.861Z" fill="#3B3561"/>
<path d="M131.09 259.523C129.879 259.094 128.902 258.449 128.16 257.59C127.379 256.73 126.793 255.793 126.402 254.777C125.973 253.801 125.719 252.805 125.641 251.789C125.523 250.773 125.543 249.875 125.699 249.094C125.816 248.312 126.051 247.707 126.402 247.277C126.715 246.887 127.086 246.789 127.516 246.984C127.477 250.383 127.887 252.941 128.746 254.66C129.566 256.418 130.66 257.512 132.027 257.941C133.355 258.41 134.879 258.312 136.598 257.648C138.277 256.984 139.977 255.949 141.695 254.543C143.453 253.176 145.113 251.516 146.676 249.562C148.277 247.648 149.625 245.637 150.719 243.527C151.812 241.457 152.594 239.406 153.062 237.375C153.531 235.305 153.512 233.43 153.004 231.75C149.488 234.289 146.754 235.891 144.801 236.555C142.848 237.219 141.48 237.258 140.699 236.672C139.957 236.047 139.723 234.953 139.996 233.391C140.27 231.828 140.855 230.109 141.754 228.234C142.652 226.359 143.785 224.484 145.152 222.609C146.52 220.695 147.926 219.094 149.371 217.805C150.816 216.516 152.203 215.695 153.531 215.344C154.898 214.992 156.031 215.402 156.93 216.574C157.828 217.785 158.395 219.426 158.629 221.496C158.863 223.527 158.805 225.793 158.453 228.293C158.102 230.793 157.477 233.41 156.578 236.145C155.719 238.879 154.645 241.535 153.355 244.113C152.066 246.73 150.582 249.152 148.902 251.379C147.262 253.605 145.484 255.461 143.57 256.945C141.656 258.43 139.645 259.426 137.535 259.934C135.426 260.48 133.277 260.344 131.09 259.523ZM143.043 230.461C143.004 230.578 142.965 230.793 142.926 231.105C142.926 231.418 142.926 231.75 142.926 232.102C142.926 232.453 142.926 232.785 142.926 233.098C142.965 233.41 143.004 233.625 143.043 233.742C144.293 234.055 145.582 233.762 146.91 232.863C148.238 231.965 149.449 230.812 150.543 229.406C151.676 228 152.613 226.516 153.355 224.953C154.137 223.391 154.605 222.082 154.762 221.027C154.957 219.973 154.762 219.387 154.176 219.27C153.59 219.113 152.516 219.738 150.953 221.145C150.484 221.574 149.859 222.16 149.078 222.902C148.297 223.645 147.496 224.445 146.676 225.305C145.895 226.164 145.152 227.062 144.449 228C143.785 228.898 143.316 229.719 143.043 230.461ZM165.191 242.355C164.02 241.965 163.121 241.379 162.496 240.598C161.91 239.777 161.52 238.879 161.324 237.902C161.129 236.926 161.09 235.91 161.207 234.855C161.363 233.762 161.598 232.727 161.91 231.75C163.082 230.5 164.391 229.074 165.836 227.473C167.32 225.832 168.883 224.23 170.523 222.668C172.164 221.105 173.863 219.66 175.621 218.332C177.418 216.965 179.234 215.93 181.07 215.227C181.695 214.953 182.184 214.973 182.535 215.285C182.926 215.559 183.199 216.008 183.355 216.633C183.512 217.258 183.57 217.98 183.531 218.801C183.531 219.621 183.473 220.422 183.355 221.203C183.238 221.984 183.082 222.688 182.887 223.312C182.691 223.938 182.496 224.367 182.301 224.602C181.832 225.148 180.914 225.793 179.547 226.535C178.219 227.277 176.734 228.098 175.094 228.996C173.453 229.855 171.812 230.754 170.172 231.691C168.531 232.629 167.184 233.566 166.129 234.504C165.074 235.402 164.449 236.301 164.254 237.199C164.059 238.098 164.605 238.918 165.895 239.66C167.223 239.816 168.824 239.758 170.699 239.484C172.613 239.172 174.547 238.781 176.5 238.312C178.492 237.805 180.406 237.297 182.242 236.789C184.078 236.242 185.582 235.812 186.754 235.5L187.457 236.145C186.598 237.277 185.191 238.312 183.238 239.25C181.285 240.188 179.176 240.969 176.91 241.594C174.645 242.18 172.438 242.57 170.289 242.766C168.141 242.922 166.441 242.785 165.191 242.355ZM179.195 219.973C179.156 219.934 178.863 220.109 178.316 220.5C177.77 220.852 177.086 221.34 176.266 221.965C175.484 222.551 174.625 223.215 173.688 223.957C172.789 224.66 171.949 225.324 171.168 225.949C170.426 226.574 169.801 227.121 169.293 227.59C168.785 228.02 168.57 228.234 168.648 228.234C169.273 228.352 170.074 228.273 171.051 228C172.066 227.688 173.102 227.258 174.156 226.711C175.25 226.164 176.285 225.559 177.262 224.895C178.238 224.191 179 223.508 179.547 222.844C180.133 222.18 180.426 221.594 180.426 221.086C180.465 220.578 180.055 220.207 179.195 219.973ZM191.031 242.355C190.992 242.277 190.973 242.062 190.973 241.711C190.973 241.359 190.992 241.125 191.031 241.008C191.148 240.578 191.363 239.836 191.676 238.781C191.988 237.688 192.32 236.555 192.672 235.383C193.023 234.172 193.355 233.039 193.668 231.984C193.98 230.93 194.195 230.188 194.312 229.758C194.469 229.211 194.645 228.586 194.84 227.883C195.035 227.141 195.074 226.438 194.957 225.773C194.371 225.695 193.648 225.773 192.789 226.008C191.93 226.203 191.07 226.379 190.211 226.535C189.391 226.652 188.609 226.652 187.867 226.535C187.164 226.379 186.656 225.91 186.344 225.129C186.812 224.152 187.516 223.527 188.453 223.254C189.391 222.941 190.406 222.727 191.5 222.609C192.594 222.492 193.629 222.316 194.605 222.082C195.621 221.848 196.422 221.32 197.008 220.5C197.359 219.484 197.77 218.254 198.238 216.809C198.746 215.324 199.273 213.781 199.82 212.18C200.367 210.578 200.953 208.996 201.578 207.434C202.242 205.871 202.926 204.484 203.629 203.273C204.059 203 204.41 202.98 204.684 203.215C204.957 203.449 205.152 203.801 205.27 204.27C205.426 204.699 205.523 205.148 205.562 205.617C205.602 206.086 205.602 206.398 205.562 206.555C205.328 207.57 204.918 208.664 204.332 209.836C203.785 210.969 203.258 212.121 202.75 213.293C202.281 214.465 201.891 215.637 201.578 216.809C201.305 217.98 201.305 219.094 201.578 220.148H214.176C214.215 220.148 214.312 220.285 214.469 220.559C214.625 220.793 214.762 220.988 214.879 221.145C215.074 221.691 214.859 222.062 214.234 222.258C213.609 222.453 212.77 222.59 211.715 222.668C210.66 222.707 209.449 222.746 208.082 222.785C206.754 222.785 205.465 222.883 204.215 223.078C203.004 223.234 201.91 223.527 200.934 223.957C199.957 224.348 199.293 224.953 198.941 225.773C197.926 228.391 196.988 231.027 196.129 233.684C195.27 236.301 194.449 238.957 193.668 241.652C193.59 241.77 193.434 241.965 193.199 242.238C192.965 242.473 192.711 242.688 192.438 242.883C192.164 243.039 191.891 243.098 191.617 243.059C191.383 243.02 191.188 242.785 191.031 242.355ZM243.062 242.355C244.664 237.199 246.109 233.117 247.398 230.109C248.727 227.062 249.82 224.934 250.68 223.723C251.578 222.512 252.184 222.121 252.496 222.551C252.809 222.98 252.77 224.074 252.379 225.832C252.027 227.59 251.246 229.953 250.035 232.922C248.863 235.852 247.203 239.211 245.055 243C244.742 243.117 244.371 243.137 243.941 243.059C243.512 242.98 243.219 242.746 243.062 242.355ZM253.316 214.172C253.238 213.977 253.199 213.625 253.199 213.117C253.199 212.609 253.238 212.297 253.316 212.18C254.215 211.867 254.898 211.828 255.367 212.062C255.836 212.297 256.129 212.648 256.246 213.117C256.363 213.547 256.344 214.016 256.188 214.523C256.07 215.031 255.855 215.422 255.543 215.695C255.23 215.93 254.859 215.969 254.43 215.812C254.039 215.617 253.668 215.07 253.316 214.172ZM262.633 242.355C262.594 242.277 262.574 242.062 262.574 241.711C262.574 241.359 262.594 241.125 262.633 241.008C262.75 240.578 262.965 239.836 263.277 238.781C263.59 237.688 263.922 236.555 264.273 235.383C264.625 234.172 264.957 233.039 265.27 231.984C265.582 230.93 265.797 230.188 265.914 229.758C266.07 229.211 266.246 228.586 266.441 227.883C266.637 227.141 266.676 226.438 266.559 225.773C265.973 225.695 265.25 225.773 264.391 226.008C263.531 226.203 262.672 226.379 261.812 226.535C260.992 226.652 260.211 226.652 259.469 226.535C258.766 226.379 258.258 225.91 257.945 225.129C258.414 224.152 259.117 223.527 260.055 223.254C260.992 222.941 262.008 222.727 263.102 222.609C264.195 222.492 265.23 222.316 266.207 222.082C267.223 221.848 268.023 221.32 268.609 220.5C268.961 219.484 269.371 218.254 269.84 216.809C270.348 215.324 270.875 213.781 271.422 212.18C271.969 210.578 272.555 208.996 273.18 207.434C273.844 205.871 274.527 204.484 275.23 203.273C275.66 203 276.012 202.98 276.285 203.215C276.559 203.449 276.754 203.801 276.871 204.27C277.027 204.699 277.125 205.148 277.164 205.617C277.203 206.086 277.203 206.398 277.164 206.555C276.93 207.57 276.52 208.664 275.934 209.836C275.387 210.969 274.859 212.121 274.352 213.293C273.883 214.465 273.492 215.637 273.18 216.809C272.906 217.98 272.906 219.094 273.18 220.148H285.777C285.816 220.148 285.914 220.285 286.07 220.559C286.227 220.793 286.363 220.988 286.48 221.145C286.676 221.691 286.461 222.062 285.836 222.258C285.211 222.453 284.371 222.59 283.316 222.668C282.262 222.707 281.051 222.746 279.684 222.785C278.355 222.785 277.066 222.883 275.816 223.078C274.605 223.234 273.512 223.527 272.535 223.957C271.559 224.348 270.895 224.953 270.543 225.773C269.527 228.391 268.59 231.027 267.73 233.684C266.871 236.301 266.051 238.957 265.27 241.652C265.191 241.77 265.035 241.965 264.801 242.238C264.566 242.473 264.312 242.688 264.039 242.883C263.766 243.039 263.492 243.098 263.219 243.059C262.984 243.02 262.789 242.785 262.633 242.355ZM339.215 241.652C337.73 240.637 336.656 239.387 335.992 237.902C335.328 236.379 334.84 234.758 334.527 233.039H333.883C330.719 235.617 327.965 237.551 325.621 238.84C323.316 240.129 321.363 240.93 319.762 241.242C318.16 241.516 316.91 241.379 316.012 240.832C315.113 240.285 314.527 239.504 314.254 238.488C314.02 237.434 314.078 236.203 314.43 234.797C314.781 233.391 315.387 231.984 316.246 230.578C317.105 229.133 318.219 227.766 319.586 226.477C320.953 225.188 322.516 224.133 324.273 223.312C326.07 222.492 328.043 221.984 330.191 221.789C332.379 221.555 334.723 221.789 337.223 222.492L337.867 221.789L345.777 205.91C346.832 206.066 347.457 206.535 347.652 207.316C347.848 208.098 347.828 208.957 347.594 209.895C347.398 210.832 347.086 211.75 346.656 212.648C346.266 213.508 345.973 214.133 345.777 214.523C345.66 214.758 345.426 215.207 345.074 215.871C344.762 216.535 344.371 217.336 343.902 218.273C343.473 219.172 343.004 220.129 342.496 221.145C341.988 222.16 341.5 223.137 341.031 224.074C340.602 224.973 340.211 225.773 339.859 226.477C339.508 227.141 339.293 227.57 339.215 227.766C338.512 229.211 338.18 230.754 338.219 232.395C338.297 233.996 338.395 235.539 338.512 237.023C338.668 237.727 338.98 238.312 339.449 238.781C339.918 239.211 340.406 239.621 340.914 240.012C341.461 240.363 341.988 240.715 342.496 241.066C343.043 241.418 343.492 241.848 343.844 242.355C343.688 242.863 343.375 243.117 342.906 243.117C342.438 243.156 341.949 243.078 341.441 242.883C340.934 242.688 340.465 242.453 340.035 242.18C339.605 241.906 339.332 241.73 339.215 241.652ZM317.359 239.016C317.516 239.68 318.102 239.875 319.117 239.602C320.172 239.328 321.402 238.762 322.809 237.902C324.215 237.004 325.699 235.93 327.262 234.68C328.863 233.43 330.289 232.18 331.539 230.93C332.828 229.68 333.824 228.527 334.527 227.473C335.27 226.418 335.504 225.637 335.23 225.129C334.02 224.465 332.672 224.133 331.188 224.133C329.703 224.133 328.219 224.406 326.734 224.953C325.289 225.461 323.883 226.203 322.516 227.18C321.188 228.117 320.055 229.211 319.117 230.461C318.219 231.711 317.574 233.078 317.184 234.562C316.832 236.008 316.891 237.492 317.359 239.016ZM350.523 242.355C348.883 241.691 347.848 240.695 347.418 239.367C347.027 238.039 347.047 236.574 347.477 234.973C347.906 233.332 348.648 231.652 349.703 229.934C350.758 228.176 351.93 226.574 353.219 225.129C354.508 223.684 355.797 222.473 357.086 221.496C358.414 220.48 359.547 219.914 360.484 219.797C362.906 219.484 364.801 219.66 366.168 220.324C367.574 220.949 368.531 221.867 369.039 223.078C369.547 224.289 369.684 225.715 369.449 227.355C369.215 228.957 368.688 230.578 367.867 232.219C367.086 233.859 366.051 235.441 364.762 236.965C363.512 238.488 362.105 239.777 360.543 240.832C359.02 241.848 357.398 242.531 355.68 242.883C353.961 243.195 352.242 243.02 350.523 242.355ZM349.879 239.016C350.191 240.266 350.855 240.969 351.871 241.125C352.887 241.242 354.059 240.988 355.387 240.363C356.754 239.699 358.18 238.762 359.664 237.551C361.148 236.301 362.496 234.953 363.707 233.508C364.957 232.062 365.973 230.617 366.754 229.172C367.574 227.688 367.965 226.398 367.926 225.305C367.926 224.211 367.398 223.391 366.344 222.844C365.328 222.258 363.609 222.141 361.188 222.492C360.641 223 359.938 223.625 359.078 224.367C358.219 225.07 357.32 225.852 356.383 226.711C355.484 227.57 354.586 228.508 353.688 229.523C352.789 230.5 352.008 231.516 351.344 232.57C350.68 233.625 350.191 234.699 349.879 235.793C349.605 236.887 349.605 237.961 349.879 239.016ZM393.941 242.355C393.824 241.066 393.922 239.797 394.234 238.547C394.586 237.258 395.035 236.008 395.582 234.797C396.168 233.547 396.773 232.316 397.398 231.105C398.062 229.855 398.629 228.645 399.098 227.473C399.566 226.262 399.898 225.09 400.094 223.957C400.289 222.785 400.211 221.633 399.859 220.5C398.883 220.148 397.75 220.227 396.461 220.734C395.211 221.242 393.883 222.023 392.477 223.078C391.07 224.094 389.605 225.305 388.082 226.711C386.598 228.078 385.133 229.484 383.688 230.93C382.281 232.336 380.934 233.684 379.645 234.973C378.355 236.262 377.184 237.336 376.129 238.195C375.113 239.016 374.254 239.543 373.551 239.777C372.848 239.973 372.379 239.719 372.145 239.016C372.105 238.977 372.32 238.488 372.789 237.551C373.297 236.574 373.902 235.363 374.605 233.918C375.348 232.473 376.148 230.91 377.008 229.23C377.906 227.551 378.746 225.988 379.527 224.543C380.309 223.059 380.992 221.809 381.578 220.793C382.164 219.777 382.535 219.23 382.691 219.152C383.512 219.699 383.922 220.305 383.922 220.969C383.961 221.594 383.863 222.258 383.629 222.961C383.395 223.625 383.121 224.309 382.809 225.012C382.535 225.715 382.496 226.418 382.691 227.121C383.316 226.691 384.176 226.105 385.27 225.363C386.402 224.582 387.613 223.781 388.902 222.961C390.23 222.141 391.598 221.34 393.004 220.559C394.449 219.777 395.797 219.172 397.047 218.742C398.297 218.273 399.41 218.02 400.387 217.98C401.402 217.941 402.145 218.234 402.613 218.859C403.082 219.484 403.219 220.52 403.023 221.965C402.867 223.371 402.262 225.305 401.207 227.766C401.09 228.039 400.797 228.703 400.328 229.758C399.898 230.773 399.41 231.887 398.863 233.098C398.355 234.27 397.867 235.383 397.398 236.438C396.969 237.453 396.695 238.098 396.578 238.371C396.539 238.527 396.48 238.82 396.402 239.25C396.363 239.641 396.305 240.09 396.227 240.598C396.148 241.066 396.031 241.535 395.875 242.004C395.719 242.434 395.523 242.766 395.289 243C395.055 243.234 394.781 243.215 394.469 242.941C394.156 242.629 393.98 242.434 393.941 242.355ZM409.82 242.355C408.648 241.965 407.75 241.379 407.125 240.598C406.539 239.777 406.148 238.879 405.953 237.902C405.758 236.926 405.719 235.91 405.836 234.855C405.992 233.762 406.227 232.727 406.539 231.75C407.711 230.5 409.02 229.074 410.465 227.473C411.949 225.832 413.512 224.23 415.152 222.668C416.793 221.105 418.492 219.66 420.25 218.332C422.047 216.965 423.863 215.93 425.699 215.227C426.324 214.953 426.812 214.973 427.164 215.285C427.555 215.559 427.828 216.008 427.984 216.633C428.141 217.258 428.199 217.98 428.16 218.801C428.16 219.621 428.102 220.422 427.984 221.203C427.867 221.984 427.711 222.688 427.516 223.312C427.32 223.938 427.125 224.367 426.93 224.602C426.461 225.148 425.543 225.793 424.176 226.535C422.848 227.277 421.363 228.098 419.723 228.996C418.082 229.855 416.441 230.754 414.801 231.691C413.16 232.629 411.812 233.566 410.758 234.504C409.703 235.402 409.078 236.301 408.883 237.199C408.688 238.098 409.234 238.918 410.523 239.66C411.852 239.816 413.453 239.758 415.328 239.484C417.242 239.172 419.176 238.781 421.129 238.312C423.121 237.805 425.035 237.297 426.871 236.789C428.707 236.242 430.211 235.812 431.383 235.5L432.086 236.145C431.227 237.277 429.82 238.312 427.867 239.25C425.914 240.188 423.805 240.969 421.539 241.594C419.273 242.18 417.066 242.57 414.918 242.766C412.77 242.922 411.07 242.785 409.82 242.355ZM423.824 219.973C423.785 219.934 423.492 220.109 422.945 220.5C422.398 220.852 421.715 221.34 420.895 221.965C420.113 222.551 419.254 223.215 418.316 223.957C417.418 224.66 416.578 225.324 415.797 225.949C415.055 226.574 414.43 227.121 413.922 227.59C413.414 228.02 413.199 228.234 413.277 228.234C413.902 228.352 414.703 228.273 415.68 228C416.695 227.688 417.73 227.258 418.785 226.711C419.879 226.164 420.914 225.559 421.891 224.895C422.867 224.191 423.629 223.508 424.176 222.844C424.762 222.18 425.055 221.594 425.055 221.086C425.094 220.578 424.684 220.207 423.824 219.973Z" fill="white"/>
</svg>
